<?xml version="1.0" encoding="utf-8"?>
<!-- Generator: Adobe Illustrator 21.0.0, SVG Export Plug-In . SVG Version: 6.00 Build 0)  -->
<svg version="1.1" id="Layer_1" xmlns="http://www.w3.org/2000/svg" xmlns:xlink="http://www.w3.org/1999/xlink" x="0px" y="0px"
	 viewBox="0 0 111 74.6" style="enable-background:new 0 0 111 74.6;" xml:space="preserve">
<style type="text/css">
	.st0{fill:#FFFFFF;}
	.st1{fill:#E2231A;}
</style>
<g>
	<path class="st0" d="M94.2,54.1c0-1.3-0.2-2.5-0.6-3.7c-0.1-0.6-0.2-1.3-0.3-1.9c-0.1-0.6-0.3-1.2-0.5-1.8
		c-0.3-0.6-0.6-1.1-1.1-1.7c-0.2-0.2-0.4-0.4-0.6-0.5c-0.2-0.2-0.5-0.3-0.7-0.5c-0.7-0.5-1.6-0.8-2.6-1.1c-1-0.2-1.9-0.5-2.9-0.8
		c0,0-0.2,0-0.4,0c-0.6,0-1.1,0-1.7,0c-0.6,0-1.1,0-1.7,0c-1.3,0.1-2.4,0.3-3.4,0.7c-1.3,0.5-2.4,1.2-3.2,1.9
		c-0.8,0.7-1.5,1.6-2,2.4c0,0,0,0,0,0.1c-1.4,1.9-2.2,4.3-2.2,6.9c0,1.2,0.2,2.3,0.5,3.3c0,0.1,0,0.2,0,0.4c0,0.6,0,1.1,0.1,1.7
		c0.1,0.6,0.2,1.1,0.3,1.7c0.1,0.6,0.3,1,0.7,1.4c0.4,0.4,0.9,0.7,1.5,1.1c0.6,0.3,1.1,0.6,1.7,0.9c0.6,0.3,1.2,0.5,1.9,0.8
		c0.9,0.2,1.7,0.4,2.6,0.5c0.5,0.1,1,0.1,1.5,0.1c0.3,0,0.7,0.1,1,0.1c0.8,0,1.7-0.1,2.5-0.3c0,0,0.1,0,0.1,0c0.7-0.1,1.4-0.2,2-0.3
		c0.6-0.2,1.2-0.4,1.6-0.8c0.5-0.4,1-0.9,1.6-1.3c0.5-0.4,1-0.9,1.5-1.3c0.2-0.2,0.4-0.4,0.4-0.6c0.1-0.2,0.2-0.5,0.3-0.7
		C93.5,58.8,94.2,56.6,94.2,54.1z"/>
	<g>
		<path class="st0" d="M39.9,10.7c0.1,0.3,0.2,0.5,0.3,0.6c0.2,0.2,0.3,0.3,0.5,0.3c0.2,0.1,0.4,0.2,0.6,0.2v0.3h-1h-0.1h0
			c-0.2,0-0.4,0-0.6,0.1c-0.1,0.1-0.3,0.1-0.4,0.2c-0.1,0.1-0.2,0.2-0.2,0.3c-0.1-0.1-0.1-0.2-0.2-0.3c-0.1-0.1-0.2-0.1-0.4-0.2
			c-0.2-0.1-0.3-0.1-0.6-0.1H37v-0.3c0.2,0,0.3-0.1,0.4-0.2c0.1-0.1,0.2-0.2,0.2-0.3c0.1-0.1,0-0.4,0-0.7l-0.5-2.5
			c-0.7,0.1-1.3,0.4-1.8,0.9c-0.5,0.4-0.9,1-1.1,1.6c-0.1,0.3-0.1,0.5,0,0.7c0.1,0,0.2-0.1,0.3-0.1c0.1-0.1,0.2-0.1,0.3-0.2
			c0.1-0.1,0.1-0.2,0.2-0.3c0-0.1,0.1-0.3,0-0.4c0.1,0,0.3,0,0.4,0.1c0.1,0,0.2,0.1,0.3,0.3c0.1,0.1,0.1,0.3,0.2,0.5
			c0,0.2,0,0.3-0.1,0.4c-0.1,0.1-0.1,0.2-0.2,0.3c-0.1,0.1-0.2,0.1-0.3,0.2c-0.1,0-0.3,0.1-0.4,0.1h-0.3c-0.2,0-0.3,0-0.4,0.1
			c-0.1,0.1-0.2,0.1-0.3,0.2c-0.1,0.1-0.1,0.2-0.2,0.3c0-0.1-0.1-0.2-0.2-0.3c-0.1-0.1-0.2-0.1-0.3-0.2c-0.1-0.1-0.2-0.1-0.4-0.1
			h-0.3v-0.3c0.2,0,0.3-0.1,0.5-0.2c0.1-0.1,0.3-0.2,0.4-0.3c0.1-0.2,0.2-0.4,0.3-0.6L35.2,2h0c0.1-0.3,0.1-0.5,0-0.7
			C35.2,1.2,35.1,1.1,35,1c-0.1-0.1-0.2-0.1-0.4-0.1V0.6h0.9c0.2,0,0.4,0,0.5-0.1c0.1-0.1,0.3-0.1,0.4-0.2c0.1-0.1,0.2-0.2,0.3-0.3
			c0.1,0.1,0.1,0.2,0.2,0.3c0.1,0.1,0.2,0.1,0.4,0.2c0.2,0.1,0.3,0.1,0.6,0.1h0.9v0.3c-0.2,0-0.3,0.1-0.4,0.1
			c-0.1,0.1-0.2,0.2-0.2,0.3c-0.1,0.2,0,0.4,0,0.7l0.7,3.6c-0.1,0.1-0.1,0.2-0.2,0.3c0,0.1,0,0.3,0,0.4c0-0.1,0-0.2,0.1-0.3
			c0-0.1,0.1-0.2,0.2-0.2c0.1-0.1,0.2-0.1,0.3-0.1c0.2,0,0.3,0,0.4,0.1c0.1,0.1,0.2,0.1,0.2,0.2c0,0,0,0.1,0,0.1s0,0.1,0,0.1
			c0,0,0,0.1,0,0.1c-0.2,0-0.4,0.1-0.5,0.2c-0.1,0.2-0.1,0.3-0.1,0.5c0,0,0,0.1,0,0.2c0,0,0,0.1,0,0.1c0,0,0,0.1,0,0.1L39.9,10.7
			L39.9,10.7z M34.4,9.1c0.7-0.8,1.5-1.3,2.5-1.5l-0.6-3c0-0.1-0.1-0.2-0.1-0.4c0-0.2-0.1-0.3-0.1-0.4c0-0.1-0.1-0.3-0.1-0.4
			c-0.1-0.1-0.1-0.1-0.2-0.1c0,0-0.1,0-0.1,0.1c0,0.1-0.1,0.2-0.1,0.3c0,0.1-0.1,0.2-0.1,0.4c0,0.1-0.1,0.3-0.1,0.4L34.4,9.1z"/>
		<path class="st0" d="M48.9,5.8c-0.1,0.2-0.1,0.4-0.1,0.6c0-0.2,0.1-0.3,0.2-0.4c0.1-0.1,0.2-0.2,0.4-0.2c0,0,0,0,0.1,0
			c0.2,0,0.3,0,0.5,0.1c0.1,0.1,0.2,0.1,0.2,0.2c0,0.1,0.1,0.1,0.1,0.2c0,0,0,0.1,0,0.1c-0.2,0-0.4,0.1-0.5,0.2
			c-0.1,0.1-0.2,0.3-0.3,0.4c-0.1,0.2-0.1,0.4-0.1,0.6h0c-0.1,1.1-0.2,1.9-0.5,2.6c-0.3,0.6-0.6,1.1-1,1.5c-0.2,0.2-0.4,0.3-0.7,0.4
			h0h0C47,12,46.9,12,46.9,12s-0.2,0-0.3,0.1c-0.1,0.1-0.2,0.1-0.3,0.2c-0.1,0.1-0.1,0.1-0.2,0.2c0,0.1-0.1,0.2-0.1,0.2
			c0-0.1-0.1-0.2-0.1-0.2c0-0.1-0.1-0.1-0.2-0.2c-0.1-0.1-0.2-0.1-0.3-0.2c-0.1,0-0.2,0-0.3-0.1s-0.2,0-0.3-0.1h0h0
			c-0.3-0.1-0.5-0.2-0.7-0.4c-0.4-0.3-0.8-0.8-1-1.5c-0.3-0.7-0.4-1.5-0.5-2.6c0-0.2,0-0.4-0.1-0.6c-0.1-0.1-0.1-0.3-0.3-0.4
			c-0.1-0.1-0.3-0.2-0.5-0.2c0,0,0,0,0-0.1c0-0.1,0-0.1,0.1-0.2c0-0.1,0.1-0.1,0.2-0.2c0.1-0.1,0.3-0.1,0.5-0.1c0,0,0,0,0.1,0
			c0.2,0,0.3,0.1,0.4,0.2c0.1,0.1,0.2,0.3,0.2,0.4c0-0.2,0-0.4-0.1-0.6c-0.1-0.2-0.3-0.3-0.5-0.3V2h0c0-0.3,0-0.5-0.1-0.7
			c-0.1-0.2-0.2-0.3-0.3-0.3c-0.1-0.1-0.3-0.1-0.4-0.1V0.6h0.9c0.2,0,0.4,0,0.6-0.1c0.2-0.1,0.3-0.1,0.4-0.2
			c0.1-0.1,0.2-0.2,0.2-0.3c0.1,0.1,0.1,0.2,0.2,0.3c0.1,0.1,0.2,0.1,0.4,0.2c0.2,0.1,0.3,0.1,0.6,0.1h0.9v0.3
			c-0.2,0-0.3,0.1-0.4,0.1c-0.1,0.1-0.2,0.2-0.3,0.3c-0.1,0.1-0.1,0.3-0.2,0.6l0,4.4c0,0.6,0,1.2,0,1.7c0,0.6,0.1,1.1,0.2,1.5
			c0.1,0.4,0.2,0.8,0.3,1.1c0.2,0.3,0.4,0.4,0.6,0.4c0.3,0,0.5-0.1,0.6-0.4c0.2-0.3,0.3-0.6,0.3-1.1c0.1-0.4,0.1-0.9,0.2-1.5
			c0-0.6,0-1.1,0-1.7l0-4.4c0-0.3-0.1-0.5-0.2-0.6c-0.1-0.1-0.2-0.2-0.3-0.3c-0.1-0.1-0.3-0.1-0.4-0.1V0.6h0.9c0.2,0,0.4,0,0.5-0.1
			c0.1-0.1,0.3-0.1,0.4-0.2c0.1-0.1,0.2-0.2,0.2-0.3c0.1,0.1,0.1,0.2,0.2,0.3c0.1,0.1,0.2,0.1,0.4,0.2c0.1,0.1,0.3,0.1,0.6,0.1h0.9
			v0.3c-0.2,0-0.3,0.1-0.4,0.1c-0.1,0.1-0.2,0.2-0.3,0.3c-0.1,0.2-0.1,0.4-0.1,0.7h0v3.5C49.2,5.5,49,5.6,48.9,5.8z"/>
		<path class="st0" d="M56.4,4.1c0.1,0,0.3-0.1,0.4-0.3c0.1-0.2,0.2-0.5,0.2-0.9c0-0.2-0.1-0.4-0.2-0.6s-0.2-0.4-0.4-0.6
			c-0.2-0.2-0.4-0.3-0.6-0.4c-0.2-0.1-0.5-0.1-0.8-0.1c-0.6,0-1.1,0.1-1.5,0.4c-0.4,0.3-0.6,0.7-0.6,1.3c0,0.4,0.1,0.7,0.3,1.1
			c0.2,0.3,0.5,0.7,0.9,1c0.3,0.3,0.7,0.7,1.1,1C55.6,6.3,56,6.6,56.3,7c0.3,0.4,0.6,0.8,0.9,1.3c0.2,0.5,0.3,1,0.3,1.6
			c0,0.5-0.2,0.9-0.6,1.3c-0.4,0.4-1,0.7-1.7,0.9h0c0,0,0,0,0,0c-0.1,0-0.1,0-0.2,0s-0.1,0-0.2,0c-0.1,0-0.3,0.1-0.4,0.2
			c-0.1,0.1-0.2,0.1-0.2,0.2c-0.1,0.1-0.1,0.2-0.2,0.2c0-0.1-0.1-0.2-0.2-0.2c-0.1-0.1-0.1-0.1-0.2-0.2c-0.1-0.1-0.2-0.1-0.3-0.2
			c-0.1,0-0.1,0-0.2,0c-0.1,0-0.1,0-0.2,0h0c-0.8-0.2-1.3-0.4-1.7-0.9c-0.4-0.4-0.6-0.9-0.6-1.3c0-0.6,0.1-1,0.4-1.3
			c0.3-0.3,0.6-0.4,1.1-0.4c0.2,0,0.4,0,0.6,0.1s0.3,0.2,0.5,0.4c0.1,0.2,0.2,0.4,0.3,0.6c0.1,0.2,0.1,0.4,0.1,0.6
			c0,0.1-0.1,0.2-0.2,0.3c-0.1,0.1-0.3,0.1-0.4,0.1c-0.1,0-0.3,0-0.4-0.1c-0.1-0.1-0.2-0.2-0.2-0.3c0-0.4-0.1-0.7-0.2-0.9
			c-0.1-0.2-0.2-0.2-0.4-0.2s-0.3,0.1-0.4,0.3c-0.1,0.2-0.2,0.5-0.2,0.9c0,0.2,0.1,0.4,0.2,0.6c0.1,0.2,0.2,0.4,0.4,0.6
			c0.2,0.2,0.4,0.3,0.6,0.4c0.2,0.1,0.5,0.1,0.8,0.1c0.6,0,1.1-0.1,1.4-0.4c0.4-0.3,0.6-0.7,0.6-1.3c0-0.2,0-0.5-0.1-0.7
			c-0.1-0.2-0.2-0.4-0.4-0.7c-0.2-0.2-0.4-0.4-0.6-0.6c-0.2-0.2-0.5-0.4-0.7-0.6c-0.1-0.1-0.3-0.1-0.4-0.2c-0.2-0.1-0.3-0.2-0.5-0.2
			c-0.1,0-0.2-0.1-0.3-0.1c-0.1,0-0.2-0.1-0.3-0.1c-0.1,0-0.3-0.1-0.4-0.1c-0.1,0-0.2,0-0.3,0c0,0,0,0,0-0.1c0,0,0,0,0-0.1
			c0,0,0-0.1,0.1-0.1c0-0.1,0.1-0.1,0.2-0.2c0.1-0.1,0.2-0.1,0.4-0.1h0c0.2,0,0.4,0.1,0.6,0.2c0-0.1-0.1-0.2-0.2-0.3
			c-0.1-0.1-0.2-0.1-0.4-0.1c-0.1,0-0.2,0-0.3,0c-0.3-0.4-0.5-0.8-0.7-1.2c-0.2-0.4-0.3-0.9-0.3-1.4c0-0.5,0.2-0.9,0.6-1.3
			c0.4-0.4,1-0.7,1.7-0.9h0h0c0.1,0,0.1,0,0.2,0c0.1,0,0.1,0,0.2,0c0.1,0,0.2-0.1,0.3-0.2c0.1-0.1,0.2-0.1,0.2-0.2
			C53.9,0.2,54,0.1,54,0c0,0.1,0.1,0.2,0.2,0.3c0.1,0.1,0.1,0.1,0.2,0.2c0.1,0.1,0.2,0.1,0.4,0.2c0.1,0,0.1,0,0.2,0s0.1,0,0.2,0
			c0,0,0,0,0,0c0.8,0.2,1.4,0.4,1.7,0.9c0.4,0.4,0.6,0.9,0.6,1.3c0,0.6-0.1,1-0.4,1.3c-0.3,0.3-0.6,0.4-1.1,0.4
			c-0.2,0-0.4,0-0.6-0.1c-0.2-0.1-0.3-0.2-0.5-0.4c-0.1-0.2-0.2-0.3-0.3-0.6c-0.1-0.2-0.1-0.4-0.1-0.6c0-0.1,0.1-0.2,0.2-0.3
			c0.1-0.1,0.3-0.1,0.4-0.1c0.1,0,0.3,0,0.4,0.1c0.1,0.1,0.2,0.2,0.2,0.3c0,0.4,0.1,0.7,0.2,0.9S56.2,4.1,56.4,4.1z"/>
		<path class="st0" d="M65,0.6v0.6v1.7h-0.3c0-0.3-0.1-0.5-0.2-0.8c-0.1-0.2-0.3-0.4-0.5-0.6c-0.2-0.2-0.5-0.3-1-0.4h-0.4v9.5
			c0,0.3,0,0.5,0.1,0.7c0.1,0.2,0.2,0.3,0.3,0.3c0.1,0.1,0.3,0.1,0.4,0.1v0.3h-0.9c-0.2,0-0.4,0-0.5,0.1c-0.1,0.1-0.3,0.1-0.4,0.2
			c-0.1,0.1-0.2,0.2-0.3,0.3c-0.1-0.1-0.1-0.2-0.2-0.3c-0.1-0.1-0.2-0.1-0.4-0.2c-0.1-0.1-0.3-0.1-0.5-0.1h-0.9v-0.3
			c0.2,0,0.3-0.1,0.4-0.1c0.1-0.1,0.2-0.2,0.3-0.3c0.1-0.2,0.1-0.4,0.1-0.7V7.5c0,0,0-0.1,0-0.2c0-0.1-0.1-0.3-0.1-0.4
			c-0.1-0.1-0.1-0.2-0.3-0.4c-0.1-0.1-0.3-0.2-0.5-0.2c0,0,0,0,0-0.1c0,0,0,0,0-0.1c0,0,0-0.1,0-0.1c0-0.1,0.1-0.1,0.2-0.2
			c0.1-0.1,0.3-0.1,0.4-0.1c0,0,0.1,0,0.1,0c0.2,0,0.3,0.1,0.4,0.2c0.1,0.1,0.1,0.3,0.2,0.4c0-0.2,0-0.4-0.1-0.6
			c-0.1-0.2-0.3-0.3-0.5-0.3V1.2h-0.4c-0.4,0.1-0.7,0.2-1,0.4c-0.2,0.2-0.4,0.4-0.5,0.6c-0.1,0.2-0.2,0.5-0.2,0.8H58V1.2V0.6h2.3
			c0.2,0,0.4,0,0.5-0.1s0.3-0.1,0.4-0.2c0.1-0.1,0.2-0.2,0.2-0.3c0.1,0.1,0.1,0.2,0.2,0.3c0.1,0.1,0.2,0.1,0.4,0.2
			c0.1,0.1,0.3,0.1,0.6,0.1H65z"/>
		<path class="st0" d="M69.5,0.6v0.3c-0.2,0-0.3,0.1-0.4,0.1c-0.1,0.1-0.2,0.2-0.3,0.3c-0.1,0.2-0.1,0.4-0.1,0.7v8.7
			c0,0.3,0,0.5,0.1,0.7c0.1,0.2,0.2,0.3,0.3,0.3c0.1,0.1,0.3,0.1,0.4,0.1v0.3h-0.9c-0.2,0-0.4,0-0.6,0.1c-0.1,0.1-0.3,0.1-0.4,0.2
			c-0.1,0.1-0.2,0.2-0.2,0.3c-0.1-0.1-0.1-0.2-0.2-0.3c-0.1-0.1-0.2-0.1-0.4-0.2c-0.2-0.1-0.3-0.1-0.6-0.1h0h0h-0.9v-0.3
			c0.2,0,0.3-0.1,0.4-0.1c0.1-0.1,0.2-0.2,0.3-0.3c0.1-0.2,0.1-0.4,0.1-0.7V7.5c0-0.2,0-0.4-0.1-0.6c-0.1-0.1-0.1-0.3-0.3-0.4
			c-0.1-0.1-0.3-0.2-0.5-0.2c0,0,0,0,0-0.1c0,0,0,0,0-0.1c0,0,0-0.1,0.1-0.1c0-0.1,0.1-0.1,0.2-0.2c0.1-0.1,0.2-0.1,0.4-0.1
			c0,0,0.1,0,0.1,0c0.2,0,0.3,0.1,0.4,0.2c0.1,0.1,0.2,0.3,0.2,0.4c0-0.2,0-0.4-0.1-0.6c-0.1-0.2-0.2-0.3-0.5-0.3V2
			c0-0.3,0-0.5-0.1-0.7C66.1,1.2,66,1.1,65.9,1c-0.1-0.1-0.3-0.1-0.4-0.1V0.6h0.9c0.2,0,0.4,0,0.6-0.1c0.2-0.1,0.3-0.1,0.4-0.2
			c0.1-0.1,0.2-0.2,0.2-0.3c0.1,0.1,0.1,0.2,0.2,0.3c0.1,0.1,0.2,0.1,0.4,0.2c0.1,0.1,0.3,0.1,0.6,0.1H69.5z"/>
		<path class="st0" d="M78,11.4c0.1,0.2,0.2,0.3,0.3,0.3c0.1,0.1,0.3,0.1,0.4,0.1v0.3h-0.9h0c-0.2,0-0.4,0-0.6,0.1
			c-0.1,0.1-0.3,0.1-0.4,0.2c-0.1,0.1-0.2,0.2-0.2,0.3c-0.1-0.1-0.1-0.2-0.2-0.3c-0.1-0.1-0.2-0.1-0.4-0.2c-0.2-0.1-0.3-0.1-0.6-0.1
			h-0.9v-0.3c0.2,0,0.3-0.1,0.4-0.1c0.1-0.1,0.2-0.2,0.3-0.3c0.1-0.1,0.1-0.3,0.2-0.6V7.4l-2.3-4.6v7.8c0,0.3,0,0.5,0.1,0.7
			c0.1,0.2,0.2,0.3,0.3,0.3c0.1,0.1,0.3,0.1,0.4,0.1v0.3h-0.9c-0.2,0-0.4,0-0.6,0.1c-0.1,0.1-0.3,0.1-0.4,0.2
			c-0.1,0.1-0.2,0.2-0.2,0.3c-0.1-0.1-0.1-0.2-0.2-0.3c-0.1-0.1-0.2-0.1-0.4-0.2c-0.2-0.1-0.3-0.1-0.6-0.1h0h0H70v-0.3
			c0.2,0,0.3-0.1,0.4-0.1c0.1-0.1,0.2-0.2,0.3-0.3c0.1-0.2,0.1-0.4,0.1-0.7V7.5c0-0.2,0-0.4-0.1-0.6c-0.1-0.1-0.1-0.3-0.3-0.4
			c-0.1-0.1-0.3-0.2-0.5-0.2c0,0,0,0,0-0.1c0,0,0,0,0-0.1c0,0,0-0.1,0.1-0.1c0-0.1,0.1-0.1,0.2-0.2c0.1-0.1,0.2-0.1,0.4-0.1
			c0,0,0.1,0,0.1,0c0.2,0,0.3,0.1,0.4,0.2c0.1,0.1,0.2,0.3,0.2,0.4c0-0.2,0-0.4-0.1-0.6c-0.1-0.2-0.2-0.3-0.5-0.3V2
			c0-0.3,0-0.5-0.1-0.7c-0.1-0.2-0.2-0.3-0.3-0.3c-0.1-0.1-0.3-0.1-0.4-0.1V0.6h0.9c0.2,0,0.4,0,0.6-0.1c0.2-0.1,0.3-0.1,0.4-0.2
			C71.9,0.2,72,0.1,72.1,0c0.1,0.1,0.1,0.2,0.2,0.3c0.1,0.1,0.2,0.1,0.4,0.2c0.2,0.1,0.3,0.1,0.6,0.1h0l2.3,4.6V1.9
			c0-0.2-0.1-0.4-0.2-0.6C75.2,1.2,75.1,1.1,75,1c-0.1-0.1-0.3-0.1-0.4-0.1V0.6h0.9c0.2,0,0.4,0,0.5-0.1s0.3-0.1,0.4-0.2
			c0.1-0.1,0.2-0.2,0.3-0.3c0.1,0.1,0.1,0.2,0.2,0.3c0.1,0.1,0.2,0.1,0.4,0.2s0.3,0.1,0.6,0.1h0.9v0.3c-0.2,0-0.3,0.1-0.4,0.1
			c-0.1,0.1-0.2,0.2-0.3,0.3c-0.1,0.1-0.1,0.4-0.2,0.6v3.6c-0.2,0-0.4,0.1-0.5,0.3c-0.1,0.2-0.1,0.4-0.1,0.6c0-0.2,0.1-0.3,0.2-0.4
			c0.1-0.1,0.2-0.2,0.4-0.2c0,0,0.1,0,0.1,0c0.2,0,0.3,0,0.5,0.1c0.1,0.1,0.2,0.1,0.2,0.2c0,0.1,0.1,0.1,0.1,0.2c0,0,0,0.1,0,0.1
			c-0.2,0-0.4,0-0.5,0.1S78,6.7,78,6.8c-0.1,0.1-0.1,0.3-0.1,0.4c0,0.1,0,0.2,0,0.3v3.2h0C77.8,11,77.9,11.2,78,11.4z"/>
	</g>
	<g>
		<path class="st0" d="M33.3,18.2c0,0,0,0.1,0.1,0.1c0.3,0.4,0.7,1,1.5,1c0,0,0.2,0,0.4,0.1c0.4,0.1,0.9,0.1,1.1,0.1
			c0.7,0,1.5-0.3,1.5-1.7c0-0.8-1.6-3.7-2.6-4c0,0,0,0,0,0s0,0,0,0c-0.2-0.1-0.5-0.4-1.1-0.4c-0.4,0-0.9,0.3-0.9,1
			c0,0.2,0.1,0.4,0.1,0.5c0,0.1-0.2,0.4-0.3,0.7c-0.3,0.4-0.5,0.9-0.5,1.5C32.4,17.6,32.8,18,33.3,18.2z"/>
		<path class="st0" d="M107.1,20.4c-0.8,0-1.2,0.7-3,3.6c-1.9,3.1-5.3,8.8-7.9,9.5c0-0.1,0-0.2,0-0.3c0-0.4,0-0.9,0.1-1.5l0-0.1
			v-0.1c0-0.5-0.2-0.9-0.3-1.1c0-0.5,0.2-0.9,0.5-1.4c0.2-0.5,0.5-1.1,0.6-1.8c2.8-1.8,4.4-4,4.4-6.4c0-1.4-1.3-2.6-2.8-2.6
			c-1.5,0-2.9,0.7-4,1.9c-0.1,0-0.2,0-0.3,0c-0.6,0-0.9,0.3-3,3.6c-0.6,0.9-1.4,2.2-1.8,2.6h-0.2l-0.5,0.9c-2.9,5.5-4.5,7.5-5.3,8.2
			c0.1-3.3,1.5-12.5,1.8-13.8c1-1.4,5.7-9,5.7-12.4c0-1.8-1.1-3.2-2.6-3.2c-4.8,0-6.3,7.2-6.6,8.9c-0.4,0.6-0.7,2.1-1.2,5.5
			C80,20.9,79,21.9,77,24.3L77,24.4l0,0.1c0,0.1-0.1,0.1-0.2,0.2c-0.3,0.3-0.6,0.5-0.9,1.3l0,0.1c-0.1,0.1-0.4,0.4-0.5,0.6
			c-0.3,0.4-0.6,0.7-0.9,1c0.3-2.6,0.4-5.5,0.4-6.7c0-0.9-0.7-1.6-1.7-1.6c-0.6,0-1.1,0.4-1.6,1.2c-0.5-1-1.5-1.6-2.7-1.6
			c-3.1,0-5.8,3.6-6.4,6.9c-0.2,0.4-0.4,0.9-0.7,1.3c-0.2,0.1-0.3,0.3-0.4,0.6c-0.4,0.7-0.6,1.1-0.7,1.4c-3,5.5-4.9,6.7-5.8,6.9
			c0-0.1,0-0.3,0-0.5c0-1.3,0.5-2.9,1.1-4.5c0.7-2,1.4-4.2,1.4-6.3c0-3.1-2.8-4.4-4.8-4.4c-1.6,0-2.9,1-3.8,2.2
			c0.1-0.5,0.1-1,0.1-1.2c0-1.8-1.7-2.6-2.8-2.6c-0.8,0-1.3,0.9-1.6,1.8c-0.4,0.3-1,1.1-2.4,3c-0.7,1-1.7,2.3-1.9,2.5
			c0,0,0.1,0,0.2-0.1c-0.9,0.3-2.8,3-2.8,3.4c0-0.1,0-0.2,0-0.2c-0.2,0.5-1.9,2.3-2.8,3c0-0.2,0-0.5,0-0.6c0-0.3,0-0.6,0-0.8
			c0-0.1,0-0.3-0.1-0.4c0-0.1,0.1-0.1,0.2-0.2c0.4-0.5,0.6-0.7,0.6-1c0-0.3-0.1-0.5-0.3-0.7c0-0.1,0.1-0.3,0.1-0.5
			c0,0,0.1-0.1,0.2-0.1c0.2-0.2,0.6-0.4,0.6-0.9c0-0.4,0-0.6,0-0.8l0-0.1c0-0.6,0.2-1,0.5-1.6c0.3-0.6,0.6-1.3,0.6-2.3
			c0-1.3-2.5-3.1-3.9-3.1c-0.4,0-1.3,0.2-1.5,1.6c-0.8,0.8-1.7,3-2.1,4.1c-0.4,0.3-0.8,0.8-1.2,1.4c-0.8,1.3-2,3.1-4.3,3.5l0.4-3.1
			c0.1-0.6,0.2-1.3,0.3-2c0.3-1.8,0.5-3.2,0.3-4c0.3-0.4,0.4-0.9,0.5-1.3c0.1-0.3,0.1-0.6,0.3-0.9l0.1-0.3l-0.3-1.3
			c0.1-0.2,0.2-0.6,0.2-1l0.5-3.1c0.1-0.6,0.3-1.1,0.4-1.6c0.2-0.7,0.5-1.4,0.6-2.3c0.3-0.3,0.6-0.9,0.6-1.5c0-1.4-2.3-1.7-2.9-1.7
			c-0.5,0-0.8,0.2-1.1,0.3c-0.4,0-0.7,0.3-2.6,2.9C10.3,12.7,5.1,16.5,5.1,20.3c0,2.5,1.7,4.1,4.4,4.1c1.1,0,3.2-0.6,3.2-2.2
			c0-0.7-0.5-1.2-1.2-1.2c-0.5,0-0.9,0.3-1.2,0.5c-0.3,0.2-0.5,0.4-0.8,0.4c-0.8,0-1.8-0.3-1.8-1.5c0-1.6,1.5-4.1,13.1-8.7L17.8,30
			C12,30.7,5.8,33.7,4.4,39.2C4,39.8,4,40.6,4,41.6c0,4.3,2.7,6.9,7.2,6.9c3.7,0,6.4-0.9,8.1-2.8l0.1-0.1h0.1l0.2-0.2
			c0.6-0.6,3.6-6.7,4.1-13c1.1-0.3,3.2-1,4-2c1-0.2,1.9-1.2,2.8-2.5c-0.1,0.7-0.2,1.7-0.2,3.2c0,1.4,0,4.4,2.1,4.4
			c3.5,0,8.3-6.4,8.3-7.1c0,0,0.1-0.1,0.1-0.1c0.6,0,0.9-0.3,2.5-2.7c-0.4,3.4-0.7,7.1-0.7,7.6c0,1.2,0.8,1.9,2.1,1.9
			c1.1,0,1.7-1.5,2.9-4.6c1.1-2.9,2.9-7.7,4.7-7.8c0,0.1,0.1,0.3,0.1,0.7c0,0.2-0.3,1-0.4,1.5c-0.2,0.6-0.3,1.1-0.4,1.5h-0.2
			l0.1,1.8c0,0-0.1,0.1-0.1,0.1c-0.2,0.2-0.5,0.5-0.5,1.1c0,0.2,0,0.4,0.1,0.6c0,0.1,0,0.2,0,0.2c0,0.6-0.1,0.8-0.2,1
			c-0.1,0.1-0.1,0.3-0.2,0.5l-0.2,0.8c-0.1,0.5-0.2,1.2-0.2,2c0,2.7,1.2,4.2,3.4,4.2c3.7,0,6.8-4.2,9-8c0.2,0.9,0.7,2.7,2.2,2.7
			c1.2,0,2.6-1.3,3.8-2.6l-0.6,3.8c-0.2,0.3-0.5,0.7-0.8,1.1c-1.9,2.5-5,6.7-5,10.8c0,3.5,2,3.9,2.9,3.9c4.4,0,7.1-8.3,7.8-10.9
			l0.1-0.5l-0.2-0.3c0-0.1,0.1-0.2,0.2-0.3c0.2-0.3,0.4-0.6,0.5-1l0-0.2l0-0.2c-0.1-0.6,0.1-1.8,0.3-2.7c0.1-0.7,0.3-1.3,0.3-1.8
			c2.1-3,4.5-6.1,5.9-7.9c-0.4,2.3-0.7,4.6-1,5l-0.1,0.1l-0.1,0.2c-0.1,0.3-0.1,0.6-0.1,1c0,0.3,0,0.6-0.1,1
			c-0.1,0.5-0.1,1.1-0.1,1.6c0,3.7,1.1,5.1,4,5.1c3.3,0,8.5-9.1,8.5-10.4c0-0.1,0-0.1,0.1-0.2c0.3-0.1,0.5-0.3,0.9-0.8
			c0,0.5-0.1,1-0.1,1.5c0,4.8,1,7.3,3,7.3c5.6,0,10-8.3,12.2-12.3c0.3-0.5,0.5-1,0.7-1.2c0.4-0.2,0.6-0.6,0.6-1.1
			C108.3,21,107.7,20.4,107.1,20.4z M98.6,20.8c0.4,0,0.5,0.2,0.5,0.5c0,0.7-0.7,1.7-1.6,2.6C97.8,22.5,98.2,21,98.6,20.8z
			 M86.7,11.9c0.4-0.2,0.5-0.7,0.8-1.4c0.1-0.3,0.4-1.1,0.6-1.4c0,0.1,0,0.3,0,0.5c0,1.6-1.2,4.3-2.3,6.4
			C85.8,14.7,86.4,12.6,86.7,11.9z M68.7,26.2c-0.6,1-1.6,2.3-2.2,2.9c0.2-3.1,1.6-7.7,2.8-7.7c0.1,0.1,0.1,0.3,0.1,0.6
			c0,0.4-0.2,1.2-0.4,1.8c-0.2,0.8-0.4,1.5-0.4,2C68.6,26,68.7,26.1,68.7,26.2z M64.5,46.6c0-1.7,1.2-4,2.4-6
			c-0.6,2.7-1.6,5.9-2.3,7C64.6,47.3,64.5,47,64.5,46.6z M17.6,32.6c-0.7,5.9-2.8,12.6-8.2,12.6c-1.9,0-3.1-1.8-3.1-3.5
			C6.3,37.3,11.3,33.4,17.6,32.6z"/>
	</g>
	<g>
		<path class="st0" d="M35,52.8c-0.4-0.8-1-1.4-1.7-1.9c-0.7-0.6-1.5-0.9-2.2-1.1c-0.2,0-0.4-0.1-0.6-0.1c-0.1,0-0.2-0.1-0.3-0.1
			c0.7-0.5,1.3-1.1,1.8-1.8c0.5-0.7,0.8-1.5,1-2.5c0-0.5,0.1-0.9,0.1-1.3c0-0.5,0-1,0-1.5c-0.1-0.6-0.3-1.2-0.5-1.8
			c-0.3-0.5-0.6-1-1-1.5c-0.4-0.4-0.9-0.8-1.4-1c-0.5-0.3-1.1-0.5-1.6-0.6c-0.3-0.1-0.7-0.1-1-0.1c-0.1,0-0.2,0-0.3,0
			c-0.4,0-0.7,0-1.1,0c-0.2,0-0.4,0-0.7,0c-0.5,0-1.1,0-1.6,0.1c-0.7,0.1-1.4,0.2-2,0.2L21,37.9v0.5c-0.1,0.1-0.1,0.3-0.1,0.5
			c0,0.3,0.1,0.5,0.3,0.7l0.1,0.1l0.1,0.1c0.1,0,0.1,0.1,0.2,0.1c0.1,0,0.2,0.1,0.3,0.1l0.1,0c0,0.7,0.1,1.4,0.2,2
			c0.1,0.6,0.1,1.3,0,2c0,0.9,0,1.8,0,2.6c0,0.9,0,1.8,0.1,2.7c0.1,1.1,0.2,2.2,0.2,3.2c0,1.1,0.1,2.2,0.1,3.4c0,0.2,0,0.3,0,0.4
			c0,0.2,0,0.5,0,0.7c0,0.1,0,0.2-0.1,0.2c-0.3,0.1-0.5,0.3-0.7,0.4c-0.2,0.1-0.4,0.3-0.6,0.5c-0.5,0.4-0.8,0.9-1,1.6
			c-0.2,0.6-0.2,1.2-0.2,1.7c0,0.6,0.2,1.2,0.4,1.7c0.2,0.6,0.6,1.1,1.1,1.4c0.9,0.7,1.9,1.2,2.8,1.4c0.7,0.2,1.4,0.3,2.1,0.3
			c0.3,0,0.6,0,1,0c0.5-0.1,1-0.1,1.4-0.3c0.4-0.1,0.9-0.2,1.4-0.4c1.4-0.4,2.6-1.2,3.5-2.1c0.9-1,1.5-2.2,1.8-3.7
			c0.1-0.3,0.1-0.7,0.2-1c0.1-0.3,0.1-0.7,0.2-1c0.2-0.8,0.2-1.7,0-2.5C35.7,54.4,35.4,53.6,35,52.8z M24.5,63.7
			c0.3,0,0.6-0.1,0.9-0.2c0.2-0.1,0.5-0.1,0.7-0.2l0.1,0l0.1,0c0.1,0,0.5-0.2,0.7-0.6l0.1-0.4L27.1,62c-0.1-0.2-0.2-0.4-0.6-0.6
			l-0.1-1.2c0-0.2,0-0.4,0-0.6c0,0.1,0,0.2,0,0.2c0,0.2,0,0.3,0.1,0.5l0,0.1l0,0.1c0.2,0.5,0.6,0.7,0.9,0.7l0.4,0l0.2-0.1
			c0.2-0.1,0.4-0.4,0.4-0.6c0.2-0.6,0.2-1.2,0-1.8c-0.2-0.4-0.6-1-1.5-1.3c-0.2-0.1-0.4-0.2-0.5-0.3c-0.1-0.2-0.2-0.4-0.2-0.7
			c0-0.8,0-1.5-0.1-2.2c0-0.7,0-1.4-0.1-2.1c0-0.4,0.1-0.6,0.1-0.6c0,0,0.1-0.1,0.7-0.2c0.1,0,0.2,0,0.4,0c0.6,0,1.2,0.1,1.8,0.4
			c0.9,0.3,1.5,0.9,1.8,1.7c0.3,0.5,0.5,1.1,0.6,1.7c0.1,0.5,0.2,1.1,0.1,1.8c0,0.7,0,1.3-0.1,1.9c-0.2,0.7-0.3,1.3-0.5,2
			c-0.2,0.6-0.4,1-0.8,1.5c-0.5,0.5-1,0.9-1.5,1.3l-0.1,0.1c-0.1,0-0.2,0.1-0.2,0.2c-0.6,0.4-1.2,0.6-1.8,0.6c0,0,0,0,0,0
			C25.8,64.2,25.2,64,24.5,63.7C24.5,63.7,24.5,63.7,24.5,63.7z M28.6,42.3l0,1.4c0.1,0.5,0.1,0.9,0,1.3c-0.1,0.5-0.1,0.9-0.3,1.4
			c-0.2,0.7-0.6,1.2-1.3,1.7c-0.1,0.1-0.1,0.1-0.2,0.1c-0.1,0.1-0.2,0.1-0.3,0.1c-0.1,0.1-0.3,0.1-0.4,0.2c0-0.1-0.2-3-0.2-3
			c0-0.8-0.1-1.7-0.1-2.5c0-0.6,0-1.1,0.1-1.7L26,40c0.4-0.1,0.7-0.1,1-0.1h0.1c0.3,0,0.5,0.1,0.6,0.3c0.2,0.2,0.3,0.4,0.4,0.6
			c0.1,0.3,0.2,0.6,0.2,0.9C28.6,41.8,28.6,42,28.6,42.3z"/>
		<path class="st0" d="M56.9,57.5c0-0.2-0.1-0.4-0.4-0.7c-0.2-0.2-0.5-0.3-0.7-0.3c-0.1,0-0.3,0-0.5,0.1c-0.1,0-0.2,0.1-0.3,0.1
			c-0.4,0.2-0.6,0.6-0.6,0.9c0,0.3-0.1,0.5-0.2,0.8c-0.1,0.3-0.2,0.6-0.1,1c-0.2,0-0.5,0-0.7,0l-0.3,0c-0.2,0-0.5,0-0.7,0
			c-0.2,0-0.3,0-0.3,0c0,0,0,0,0,0c0-0.1,0-0.2,0-0.4v-2.6h0.1l-0.1-0.9c0-0.7-0.1-1.4-0.1-2c0-0.7-0.2-3-0.2-3.6
			c0-0.6-0.1-1.2-0.1-1.8l-0.1-1.9c0-0.6,0-1.1,0-1.5c0-0.4,0-0.9,0-1.3c0-0.4,0-0.9-0.1-1.4c-0.1-0.5,0-0.8,0.5-1.2
			c0.1-0.1,0.2-0.1,0.3-0.2l0.1-0.1l0.1-0.1c0.2-0.4,0.2-0.7,0.1-1c-0.1-0.3-0.4-0.6-0.9-0.6c-0.1,0-0.2,0-0.4,0c-0.1,0-0.1,0-0.2,0
			c-0.1,0-0.3,0-0.4,0c-0.6,0.1-1.1,0.2-1.7,0.3l-1.7,0.3l-0.2,0c0-0.1,0-0.2,0-0.3c0-0.6-0.2-1.1-0.5-1.4c-0.3-0.3-0.7-0.5-1.3-0.5
			c-0.2,0-0.3,0-0.5,0c-0.2,0-0.3,0-0.5,0l-0.9,0.1c-1.2,0-2.3,0.1-3.4,0.2c-0.9,0.1-1.8,0.1-2.7,0.1c-0.2,0-0.5,0-0.7,0
			c-0.2,0-0.4,0-0.7,0.1c-0.2,0.1-0.4,0.3-0.5,0.5l-0.4,0.5l0.4,0.6c0.1,0.1,0.1,0.2,0.2,0.2l0.1,0.1l0.2,0.1
			c0.4,0.1,0.6,0.3,0.8,0.6c0.2,0.3,0.3,0.7,0.3,1.2c0,0.9,0,1.8,0.1,2.8c0,0.9,0.1,1.8,0.1,2.7c0,2.3,0.1,4.6,0.2,6.9l0.3,6.9
			c0,0.2,0,0.4,0,0.6c-0.2,0-0.4,0.1-0.6,0.2l-0.5,0.2v0.4c-0.1,0.2-0.1,0.4,0,0.5c0.1,0.6,0.5,0.9,1,0.9h0l0,0
			c0.3,0,0.5-0.1,0.8-0.1c0.2,0,0.4,0,0.7,0c0.4,0,0.7,0,1.1,0c0,0,0.9,0,1.1,0c0.4,0,0.8,0,1.1,0c0.5,0,1,0,1.5,0c0.5,0,1,0,1.5,0
			c0.3,0,0.6-0.1,0.9-0.2c0.4-0.2,0.6-0.5,0.7-0.9l0-0.1v-1.5c0-0.5-0.1-1.1-0.2-1.6l-0.1-0.2l-0.2-0.2c-0.1-0.1-0.1-0.1-0.2-0.1
			l-0.2-0.2h-0.3c-0.2,0-0.3,0-0.5,0.1l-0.4,0.2L44.5,59c-0.1,0.2-0.1,0.3-0.1,0.5c0,0.1-0.1,0.2-0.1,0.4c-0.1,0.3-0.2,0.6-0.2,0.8
			c0,0.1-0.1,0.1-0.1,0.1c0,0-0.1,0-0.1,0.1C43.7,61,43,61.2,43,61.2c-0.3,0.1-0.6,0.1-0.9,0.1c0-0.1,0-0.3,0-0.7
			c0-0.5,0.1-1.1,0.1-1.6c0-0.5,0-1,0-1.6c0-0.3,0-0.5,0-0.8c0-0.2,0-0.3-0.1-0.5c0.1,0,0.2-0.1,0.3-0.1c0.1,0,0.2-0.1,0.3-0.1
			c0,0,0,0.1,0,0.1c0,0.2,0,0.4,0.1,0.6c0.1,0.6,0.7,1,1.3,1c0.1,0,0.2,0,0.2,0l0.1,0l0.1,0c0.4-0.1,0.6-0.3,0.9-0.4
			c0.2-0.2,0.5-0.6,0.4-1.3c0-0.4-0.1-0.8-0.1-1.2c0-0.4,0-0.8,0.1-1.3c0-0.2,0-0.4-0.1-0.8c-0.2-0.6-0.6-1-1.2-1l-0.2,0
			c-0.5,0-0.8,0.1-1.1,0.3c-0.3,0.2-0.6,0.6-0.6,1.3c0,0.1,0,0.2,0,0.3c0,0-0.2,0-0.2,0c-0.2,0-0.3,0-0.4-0.1c0-0.1,0-0.2,0-0.3
			c0-0.2,0-0.3,0-0.5c0-0.1,0-0.2,0-0.4v-5.9l-0.1-0.8v-1.8c0-0.7,0-1.3,0-2c0-0.6,0-1.3,0-1.9c0-0.2,0.1-0.3,0.1-0.4
			c0,0,0.1,0,0.2-0.1c0.2,0,0.5,0,0.7,0h0.7l0.7,0c0,0.2,0,0.4,0.1,0.6c0.1,0.7,0.3,1.4,0.7,2c0.1,0.2,0.2,0.4,0.5,0.5
			c0.2,0.1,0.3,0.1,0.5,0.1c0.5,0,1-0.4,1.1-0.9l0-0.1v-0.1c0,0,0-0.1,0-0.1c0,0,0,0,0,0c0.1,0.1,0.1,0.3,0.1,0.5
			c0,0.4,0,0.8,0.1,1.2c0,0.3,0,0.7,0,1c0,0.6,0,1.3,0,2.1c0,0.8,0.1,1.5,0.1,2.3c0,0.8,0.1,1.6,0.1,2.3c0,0.8,0.1,1.5,0.2,2.1
			c0.1,1,0.2,2.1,0.2,3c0,1,0,2.1,0,3.1c0,0.2,0,0.3,0,0.5c-0.5,0.5-0.5,1-0.4,1.2c0.1,0.3,0.4,0.7,1.2,0.8h0.2c0.2,0,0.4,0,0.5-0.1
			c0.2-0.1,0.4-0.1,0.6-0.1c0.3,0,0.5,0,0.7,0c0.7,0,1.3,0.1,2,0.1h2c0.2,0,0.4,0,0.6,0l0.3-0.1c0.7,0,1.2-0.5,1.4-1.2
			c0.1-0.5,0.1-1,0-1.5C57,58.3,56.9,57.9,56.9,57.5z"/>
		<path class="st0" d="M67.1,58.7c0-0.4-0.1-0.8-0.2-1.2c0-0.2-0.1-0.4-0.4-0.7c-0.2-0.2-0.5-0.3-0.7-0.3c-0.1,0-0.3,0-0.5,0.1
			c-0.1,0-0.2,0.1-0.3,0.1c-0.4,0.2-0.6,0.6-0.6,0.9c0,0.3-0.1,0.5-0.2,0.8c-0.1,0.3-0.2,0.6-0.1,1c-0.2,0-0.5,0-0.7,0l-0.3,0
			c-0.2,0-0.5,0-0.7,0c-0.2,0-0.3,0-0.3,0c0,0,0,0,0,0c0-0.1,0-0.2,0-0.4v-2.6h0.1l-0.1-0.9c0-0.7-0.1-1.4-0.1-2
			c0-0.7-0.2-3-0.2-3.6c0-0.6-0.1-1.2-0.1-1.8l-0.1-1.9c0-0.6,0-1.1,0-1.5c0-0.4,0-0.9,0-1.3c0-0.4,0-0.9-0.1-1.4
			c-0.1-0.5,0-0.8,0.5-1.2c0.1-0.1,0.2-0.1,0.3-0.2l0.1-0.1l0.1-0.1c0.2-0.4,0.2-0.7,0.1-1c-0.1-0.3-0.4-0.6-0.9-0.6
			c-0.1,0-0.2,0-0.4,0c-0.1,0-0.1,0-0.2,0c-0.1,0-0.3,0-0.4,0c-0.6,0.1-1.1,0.2-1.7,0.3l-1.7,0.3l-0.3,0l-0.1,0.1
			c-0.1,0.1-0.2,0.1-0.3,0.2l-0.1,0.1L56.3,40c-0.1,0.3-0.2,0.6,0,0.9c0.1,0.2,0.3,0.4,0.6,0.5c0.1,0.1,0.2,0.1,0.2,0.2
			c0.1,0.1,0.1,0.3,0.1,0.5c0,0.4,0,0.8,0.1,1.2c0,0.3,0,0.7,0,1c0,0.6,0,1.3,0,2.1c0,0.8,0.1,1.5,0.1,2.3c0,0.8,0.1,1.6,0.1,2.3
			c0,0.8,0.1,1.5,0.2,2.1c0.1,1,0.2,2.1,0.2,3c0,1,0,2.1,0,3.1c0,0.2,0,0.3,0,0.5c-0.5,0.5-0.5,1-0.4,1.2c0.1,0.3,0.4,0.7,1.2,0.8
			h0.2c0.2,0,0.4,0,0.5-0.1c0.2-0.1,0.4-0.1,0.6-0.1c0.3,0,0.5,0,0.7,0c0.7,0,1.3,0.1,2,0.1h2c0.2,0,0.4,0,0.6,0l0.3-0.1
			c0.7,0,1.2-0.5,1.4-1.2C67.1,59.7,67.1,59.2,67.1,58.7z"/>
	</g>
	<path class="st0" d="M111,46.5c0.1-0.5,0-0.9-0.2-1.3c-0.6-0.9-1.5-1.4-2.4-1.9c-1.2-0.7-2.5-1.2-3.9-1.5c-1.9-0.5-2.1-1.2-8.1-1.1
		c-0.1,0-0.2,0.1-0.4,0.2c0.2,0.5,0.4,0.7,0.9,0.7c1.3,0,2.2,0.4,3.3,0.7c2.4,0.6,5,2.6,7.7,4.4c0.6,0.4,1.3,0.8,2.1,0.7
		C110.4,47.3,110.8,47,111,46.5z M98,38.8c2.2-0.1,4.3-0.6,6.3-1.7c0.2-0.1,0.4-0.2,0.6-0.3c0.2-0.2,0.5-0.4,0.6-0.7
		c0.3-0.5,0.1-1-0.6-1c-0.5,0-0.9,0-1.4,0.1c-0.6,0.1-1.1,0.4-1.7,0.6c-0.7,0.3-1.5,0.7-2.2,0.9c-1.5,0.6-4.5,1.6-6.1,1.2
		c-0.9-0.2-1.9-0.4-2.6-1c-0.1-0.1-0.4-0.1-0.5-0.1c-0.2,0.2-0.1,0.4,0.1,0.5c0.5,0.4,1.1,1.2,4.9,1.5C96.3,38.8,97.1,38.8,98,38.8z
		 M100.7,49.4c0-1.7-1.6-3.4-1.9-3.8c-2.3-3-5.1-3.8-7-4.6c-0.8-0.3-0.9-0.1-1.2,0c0.1,0.3,0.1,0.5,0.6,0.7c2,0.5,3.7,1.8,5,3.4
		c1.4,1.6,1.7,3.4,2.1,5c0.2,0.2,0.3,0.4,0.5,0.6c0.4,0.3,1.1,0.3,1.4-0.2C100.5,50.1,100.7,49.7,100.7,49.4z"/>
	<path class="st0" d="M6,33.5c-0.4-0.4-0.6-0.2-0.9-0.1c-1.3,0.7-2.4,1.7-3.2,3c-0.6,0.9-1,1.8-1.2,2.9c-0.2,1.1-0.7,2.2-0.7,3.4
		c-0.1,2.7,0.5,5.1,2.2,7.2c1,1.4,2.3,2.3,3.9,3c1.1,0.5,2.2,1.1,3.4,1.2c2.2,0.3,4.3,0.1,6.4-0.5c1.1-0.3,1.9-1.1,2.6-2
		c0.4-0.5,0.3-0.9,0-1.4c-0.3-0.4-0.7-0.6-1.2-0.6c-0.4,0.1-0.7,0.2-1.1,0.3c-1.8,0.8-3.8,1.3-5.8,1.3c-0.4,0-0.9,0-1.3-0.1
		c-0.9-0.2-1.9-0.4-2.8-0.6c-1.6-0.4-2.9-1-3.8-2.5c-0.4-0.8-0.9-1.6-1.3-2.4C1,45.3,1,44.8,0.9,44.3c0-0.3,0.1-0.5,0-0.8
		c-0.4-1,0-2,0.3-2.9c0.1-0.3,0.2-0.7,0.3-1c0.3-2.4,1.8-4.1,3.6-5.4C5.4,34,5.7,33.8,6,33.5z"/>
	<g>
		<path class="st1" d="M33.7,17.4c0.3,0,0.6,1.1,1.3,1.1c0.1,0,1.1,0.2,1.4,0.2c0.5,0,0.6-0.3,0.6-0.9c0-0.7-1.7-3.1-1.9-3.1
			c-0.3,0-0.4-0.4-0.9-0.4c-0.1,0-0.1,0.1-0.1,0.1c0,0.2,0.1,0.3,0.1,0.5c0,0.7-0.9,1.5-0.9,2.2C33.3,17.3,33.6,17.4,33.7,17.4z"/>
		<path class="st1" d="M107.2,21.2c-1,0-6.9,13.2-11.5,13.2c-0.2,0-0.3-0.5-0.3-1.2c0-0.5,0-1,0.1-1.6c0-0.5-0.3-1-0.3-1
			c0-1.6,1.1-2.3,1.1-3.8c0,0,4.4-2.2,4.4-5.9c0-0.9-1-1.8-2-1.8c-1.6,0-2.9,0.9-4,2.4c0-0.2-0.1-0.5-0.4-0.5
			c-0.5,0-4.1,6.2-4.5,6.2c-0.6,1.2-4.7,9.5-7,9.5c-0.1,0-0.1-0.3-0.1-0.8c0-3.1,1.8-14.4,1.9-14.6c0.3-0.3,5.6-8.7,5.6-12
			c0-1.2-0.6-2.3-1.7-2.3c-4,0-5.6,6.5-5.9,8.5c-0.4,0-0.8,2.7-1.3,5.7c0,0-0.1,0-0.1,0c-0.5,0-2,1.6-3.5,3.5
			c-0.3,0.6-0.5,0.4-1.1,1.6c0,0.3-1.8,1.8-2.1,2.7c-0.2,0.5-0.7,1.3-1.3,1.5c0.5-2.6,0.8-7.9,0.8-9.6c0-0.5-0.4-0.8-0.9-0.8
			c-1,0-2.1,3.6-2.6,5.2c0,0-0.1,0.1-0.1,0.2c0-1.3,0.7-2,0.7-3.3c0-1.4-0.9-2.5-2.3-2.5c-2.6,0-5.1,3.1-5.6,6.4
			c-0.3,0.5-0.5,1-0.8,1.6c-0.2,0-1,1.5-1,1.7c-2.1,3.9-4.7,7.5-6.8,7.5c-0.4,0-0.6-0.5-0.6-1.3c0-3,2.5-7.1,2.5-10.8
			c0-2.7-2.6-3.6-4-3.6c-3,0-4.4,4.1-5.2,5.5c0-0.1,0.6-4.4,0.6-5.4c0-1.3-1.3-1.8-2-1.8c-0.3,0-0.6,0.6-0.9,1.6c0,0,0,0,0,0
			c-0.5,0-4.2,5.6-4.6,5.6c-0.2,0-2.2,2.5-2.2,2.6c0,0.5-3.1,3.9-4.1,3.9c-0.5,0-0.4-1.5-0.5-2.5c0-0.1-0.2-0.3-0.2-0.5
			c0-0.1,0.9-1,0.9-1.1c0-0.1-0.3-0.5-0.3-0.5c0-0.2,0.2-0.5,0.2-0.8c0-0.4,0.7-0.6,0.7-0.8c0-0.5,0-0.9,0-0.9
			c0-1.6,1.1-2.3,1.1-3.8c0-0.7-2-2.3-3.1-2.3c-0.5,0-0.7,0.6-0.7,1.3c-0.1,0-0.1,0-0.2,0c-0.2,0-2.1,3.7-2.1,4.3
			c-1,0-2.1,5.2-7,5.2l0.6-4.1c0.2-2.1,1.1-5.3,0.5-6.1c0.6-0.6,0.5-1.6,1-2.4l-0.3-1.3c0,0,0.3-0.4,0.3-1l0.5-3.1
			c0.2-1.5,1-2.6,1-4.2c0,0,0.6-0.5,0.6-1.2c0-0.5-1.5-0.9-2.1-0.9c-0.5,0-0.9,0.3-1,0.3c-0.2,0-2.2,2.7-2.2,2.7
			c-12.4,4.5-16.1,8.1-16.1,11c0,2.1,1.4,3.3,3.6,3.3c0.7,0,2.3-0.5,2.3-1.4c0-0.3-0.1-0.4-0.4-0.4c-0.5,0-1.1,0.9-2,0.9
			C8,22.7,7,21.9,7,20.4c0-2.4,2.6-5.2,15-10l-3.2,20.4c-6.2,0.5-12.2,3.6-13.4,8.8C5,40,5,40.5,5,41.6c0,4.2,2.7,6.1,6.3,6.1
			c2.7,0,5.6-0.5,7.5-2.6c0-0.3,0.1-0.3,0.3-0.3h0.1c0.5-0.5,3.6-6.8,3.9-13c0.5,0,4.3-1.3,4.3-2.1c1.8,0,3.7-3.9,5.1-7
			c-0.2,1.4-0.9,2.8-0.9,4.1c0,0.9-0.4,1.9-0.4,4.4c0,2.1,0.3,3.6,1.3,3.6c3.2,0,7.5-6.3,7.5-6.4c0-0.5,0.7-0.8,0.9-0.8
			c0.5,0,3.5-5,3.8-5c0,0,0,0,0,0c-0.8,3.9-1.2,10.2-1.2,10.8c0,0.7,0.4,1.1,1.3,1.1c1.5,0,3.7-12.4,7.7-12.4c0.6,0,0.8,0.5,0.8,1.6
			c0,0.5-1,3-1,3.6c0,0.1,0,0.2-0.1,0.2l0,1c-0.1,0.5-0.5,0.6-0.5,1.1c0,0.3,0.1,0.6,0.1,0.9c0,1.2-0.3,1.2-0.4,1.7l-0.2,0.8
			c-0.1,0.5-0.2,1.1-0.2,1.8c0,1.9,0.6,3.4,2.6,3.4c3.6,0,6.8-4.8,9.2-9.3c-0.1-0.3,0.1-0.7,0.3-0.9c0,0.6-0.1,1.4-0.1,1.4
			c0,0.2,0.2,0.7,0.3,1.1c0.2,1.2,0.6,2.4,1.4,2.4c1.6,0,4.4-3.8,5.1-4.9l-1.1,7.2c-1.1,1.8-5.8,6.9-5.8,11.7c0,1,0.2,3.1,2.1,3.1
			c2.9,0,5.6-5.2,7-10.3c-0.6-0.9,0.4-1.4,0.5-2.1c-0.3-1.3,0.6-3.8,0.6-4.9c0,0,7.1-9.8,7.7-9.8c0.1,0,0.2,0,0.2-0.1
			c-0.5,3.6-1.1,7.3-1.5,7.8c0,0.1-0.1,0.4-0.1,0.7c0,0.7-0.2,1.7-0.2,2.6c0,3.5,1,4.3,3.1,4.3c2.7,0,7.7-8.8,7.7-9.6
			c0-0.5,0.4-1,0.6-1c0.5,0,3.1-5,3.4-5c0,0,0.1,0,0.1,0c-1,1.8-1.6,4.1-1.6,6.5c0,2.1,0.2,6.5,2.2,6.5c6.1,0,11-11.5,12.2-13.3
			c0.1-0.1,0.4-0.1,0.4-0.5C107.6,21.4,107.4,21.2,107.2,21.2z M98.7,20c1,0,1.4,0.6,1.4,1.3c0,1.7-2.3,3.8-3.5,4.6
			C96.6,25.2,97.2,20,98.7,20z M85.1,16.2c0-1.7,0.9-5,1.2-5c0.4,0,0.9-3.1,2-3.1c0.5,0,0.8,0.6,0.8,1.5c0,2.9-3.1,8.3-4.2,9.8
			C84.9,19.4,85.1,17.2,85.1,16.2z M9.6,46c-2.3,0-3.9-2.1-3.9-4.3c0-5.1,5.7-9.5,13-10C18.5,33.7,17.4,46,9.6,46z M64.7,48.7
			c-0.7,0-0.9-1.3-0.9-2.1c0-3.3,3.9-8.5,4.7-9.9C68.6,37.8,66.2,48.7,64.7,48.7z M69.6,25.8c0,0.2,0.1,0.4,0.2,0.4
			c-0.4,0.8-2.6,4.2-3.7,4.2c-0.2,0-0.3-0.2-0.3-0.5c0-2.6,1.4-9.2,3.6-9.2c0.7,0,1,0.8,1,1.4C70.3,23,69.6,25,69.6,25.8z"/>
	</g>
	<g>
		<path class="st1" d="M25.8,38.4c0.4,0,0.8,0,1.2,0c0.4,0,0.8,0,1.1,0.1c0.5,0.1,0.9,0.2,1.4,0.5c0.4,0.2,0.8,0.5,1.2,0.9
			c0.3,0.4,0.6,0.8,0.9,1.3c0.2,0.5,0.4,1,0.5,1.5c0,0.5,0.1,0.9,0,1.3c0,0.4-0.1,0.9-0.1,1.3c-0.1,0.8-0.4,1.6-0.8,2.2
			c-0.4,0.6-1,1.1-1.6,1.6c-0.2,0.1-0.3,0.2-0.5,0.3c-0.1,0.1-0.3,0.2-0.5,0.3c-0.2,0.2-0.2,0.4,0.1,0.5c0.1,0,0.3,0.1,0.4,0.1
			c0.1,0,0.3,0.1,0.4,0.1c0.2,0,0.4,0.1,0.6,0.2c0.2,0.1,0.4,0.1,0.6,0.2c0.7,0.1,1.3,0.5,1.9,0.9c0.6,0.5,1.1,1.1,1.5,1.7
			c0.4,0.7,0.7,1.4,0.8,2.2c0.2,0.8,0.1,1.5,0,2.2c-0.1,0.3-0.1,0.7-0.2,1c-0.1,0.3-0.1,0.7-0.2,1c-0.3,1.4-0.8,2.5-1.6,3.4
			c-0.8,0.9-1.9,1.5-3.2,1.9c-0.5,0.1-0.9,0.2-1.3,0.4c-0.4,0.1-0.9,0.2-1.3,0.3c-1,0.1-1.9,0-2.8-0.2c-0.9-0.2-1.7-0.7-2.6-1.3
			c-0.4-0.3-0.6-0.6-0.8-1.1s-0.3-0.9-0.3-1.4c0-0.5,0-1,0.2-1.5c0.1-0.5,0.4-0.9,0.8-1.2c0.2-0.2,0.4-0.3,0.6-0.4
			c0.2-0.1,0.4-0.3,0.6-0.4c0.4-0.2,0.5-0.5,0.5-0.9c0-0.2,0-0.4,0-0.6c0-0.2,0-0.4,0-0.6c0-1.1-0.1-2.2-0.1-3.4
			c0-1.1-0.1-2.2-0.2-3.3c-0.1-0.9-0.1-1.7-0.1-2.6c0-0.9,0-1.7,0-2.6c0-0.7,0-1.4,0-2c-0.1-0.7-0.1-1.4-0.2-2
			c0-0.5-0.3-0.7-0.7-0.7c-0.1,0-0.2,0-0.2-0.1c-0.1,0-0.1,0-0.2-0.1c0,0-0.1-0.1-0.1-0.1c0-0.1,0-0.1,0.1-0.2c0,0,0,0,0-0.1
			c0.7,0,1.4-0.1,2.1-0.3C24.4,38.4,25.1,38.4,25.8,38.4z M32.2,56.7c0-0.6,0-1.3-0.1-1.9c-0.1-0.6-0.4-1.2-0.6-1.8
			c-0.4-1-1.2-1.7-2.3-2.1c-0.9-0.3-1.7-0.5-2.5-0.4c-0.6,0-1,0.2-1.2,0.4c-0.2,0.2-0.3,0.6-0.3,1.1c0,0.7,0,1.4,0.1,2.2
			c0,0.7,0,1.5,0.1,2.2c0,0.4,0.1,0.8,0.3,1.1c0.2,0.3,0.5,0.5,1,0.7c0.5,0.1,0.8,0.4,1,0.8c0.2,0.4,0.1,0.8,0,1.3
			c0,0,0,0.1-0.1,0.1c-0.1,0.1-0.2,0-0.2-0.1c0-0.1,0-0.3-0.1-0.4c0-0.1,0-0.3-0.1-0.4c-0.1-0.2-0.2-0.4-0.3-0.5
			c-0.2-0.1-0.4-0.2-0.6-0.4c-0.2,0-0.4,0-0.5,0.1c-0.1,0.1-0.2,0.2-0.2,0.4c0,0.5,0,0.9,0,1.3c0,0.4,0,0.9,0.1,1.3
			c0,0.3,0.1,0.5,0.4,0.6c0.1,0,0.2,0.1,0.2,0.2c0,0.1,0,0.2-0.2,0.2c-0.3,0-0.6,0.1-0.9,0.2c-0.3,0.1-0.6,0.1-1,0.1
			c-0.3-0.1-0.5-0.2-0.5-0.5c0-0.3,0-0.7-0.1-1c0-0.3-0.1-0.7-0.1-1c0-0.1,0-0.2-0.1-0.4c0-0.1-0.1-0.2-0.1-0.4c0-0.1-0.1-0.1-0.3,0
			c-0.1,0.1-0.2,0.3-0.3,0.4c-0.1,0.2-0.1,0.3-0.2,0.4c-0.3,0.8-0.4,1.5-0.1,2.2c0.2,0.7,0.7,1.2,1.5,1.6c0.8,0.5,1.6,0.7,2.4,0.8
			c0.8,0,1.6-0.2,2.4-0.8c0,0,0.1-0.1,0.1-0.1c0,0,0.1,0,0.1-0.1c0.6-0.4,1.2-0.9,1.7-1.4c0.5-0.5,0.8-1.1,1-1.8
			c0.2-0.7,0.4-1.4,0.6-2.1C32.2,58.2,32.3,57.5,32.2,56.7z M29.2,43.7v-1.3c0-0.3,0-0.7-0.1-1c-0.1-0.3-0.2-0.6-0.3-0.9
			c-0.2-0.4-0.4-0.7-0.7-0.9c-0.3-0.3-0.6-0.4-1.1-0.4c-0.6,0-1.1,0-1.7,0.2c-0.2,0-0.3,0.2-0.4,0.4c0,0.6-0.1,1.1-0.1,1.7
			c0,0.6-0.1,1.1-0.1,1.7c0,0.8,0.1,1.7,0.1,2.5c0,0.8,0.1,1.7,0.1,2.6c0,0.4,0,0.7,0.1,0.9c0,0.2,0.1,0.3,0.2,0.4
			c0.1,0.1,0.2,0.1,0.4,0c0.2-0.1,0.5-0.2,0.8-0.3c0.1,0,0.2-0.1,0.4-0.2c0.1-0.1,0.3-0.1,0.4-0.2c0.8-0.5,1.4-1.2,1.6-2.1
			c0.1-0.5,0.2-1,0.3-1.5C29.3,44.7,29.3,44.2,29.2,43.7z"/>
		<path class="st1" d="M35.9,39c0,0-0.1-0.1-0.1-0.1c0,0,0-0.1,0-0.1c0,0,0.1-0.1,0.1-0.2c0-0.1,0.1-0.1,0.1-0.1c0.1,0,0.2,0,0.3,0
			c1.2,0,2.4,0,3.5-0.1c1.1-0.1,2.3-0.2,3.4-0.2c0.3,0,0.6,0,0.9-0.1c0.3,0,0.6,0,0.9,0c0.4,0,0.6,0.1,0.8,0.3
			c0.2,0.2,0.2,0.4,0.3,0.8c0,0.4,0,0.9,0,1.3c0,0.4,0,0.9,0,1.3c0,0.2-0.2,0.3-0.3,0.3c0,0-0.1,0-0.1,0c0,0-0.1-0.1-0.1-0.1
			c-0.3-0.6-0.5-1.1-0.6-1.8c0-0.3-0.1-0.6-0.1-0.8c0-0.2-0.1-0.3-0.2-0.4c-0.1-0.1-0.3-0.1-0.5-0.1c-0.2,0-0.5,0-0.8,0
			c-0.2,0-0.5,0-0.7,0s-0.5,0-0.7,0c-0.4,0-0.6,0.2-0.7,0.3c-0.1,0.2-0.2,0.5-0.2,0.8c0,0.6,0,1.3,0,2c0,0.7,0,1.3,0,2v2.7h0.1v5.9
			c0,0.1,0,0.3,0,0.4c0,0.1,0,0.3,0,0.4c0,0.6,0.1,0.9,0.3,1c0.1,0.1,0.5,0.2,0.9,0.2c0.5,0,0.8,0,0.9-0.2c0.1-0.2,0.2-0.4,0.2-0.9
			c0-0.3,0-0.6,0.2-0.7c0.2-0.1,0.4-0.2,0.7-0.2c0.3,0,0.5,0.1,0.5,0.4c0,0.2,0.1,0.4,0.1,0.6c0,0.5-0.1,0.9-0.1,1.3
			c0,0.4,0,0.8,0.1,1.3c0,0.3,0,0.4-0.1,0.6c-0.1,0.1-0.3,0.2-0.5,0.3c-0.4,0-0.6-0.1-0.7-0.4c0-0.2-0.1-0.3-0.1-0.4
			c0-0.5-0.2-0.8-0.4-0.9c-0.2-0.1-0.5-0.1-1,0.1c-0.2,0-0.4,0.1-0.5,0.2c-0.3,0.1-0.4,0.3-0.4,0.5c0,0.3,0.1,0.5,0.1,0.7
			c0,0.2,0,0.5,0,0.7c0,0.5,0,1,0,1.5c0,0.5,0,1-0.1,1.5c0,0.4,0,0.7,0,1c0.1,0.2,0.2,0.4,0.3,0.5c0.1,0.1,0.3,0.1,0.6,0.1
			c0.3,0,0.6-0.1,1-0.1c0.1,0,0.1,0,0.1,0c0.3-0.1,0.6-0.2,0.8-0.2c0.2-0.1,0.3-0.1,0.5-0.3c0.1-0.1,0.2-0.3,0.3-0.5
			c0.1-0.2,0.1-0.5,0.2-0.8c0-0.1,0.1-0.3,0.1-0.4c0-0.1,0.1-0.3,0.1-0.4c0,0,0.1,0,0.1-0.1c0,0,0.1,0,0.1,0c0,0,0.1,0,0.1,0.1
			s0.1,0,0.1,0.1c0.1,0.5,0.2,0.9,0.2,1.4c0,0.5,0,0.9,0,1.4c0,0.1-0.1,0.3-0.2,0.3c-0.1,0.1-0.3,0.1-0.5,0.1c-0.5,0-1,0-1.5,0
			c-0.5,0-1,0-1.5,0c-0.6,0-1.1,0-1.7,0c-0.6,0-1.1,0-1.7,0c-0.3,0-0.5,0-0.8,0.1c-0.3,0-0.5,0.1-0.8,0.1c-0.1,0-0.1-0.1-0.1-0.2
			c0,0,0-0.1,0-0.1c0,0,0-0.1,0-0.1c0.2-0.1,0.3-0.1,0.5-0.1s0.3-0.1,0.4-0.3c0.1-0.2,0.2-0.3,0.1-0.5c0-0.2,0-0.4,0-0.6
			c-0.1-2.3-0.2-4.7-0.3-6.9s-0.2-4.6-0.2-6.9c0-0.9-0.1-1.8-0.1-2.7c0-0.9-0.1-1.8-0.1-2.7c0-0.6-0.1-1.1-0.3-1.6
			C36.9,39.6,36.5,39.2,35.9,39z"/>
		<path class="st1" d="M51.3,40.3c-0.6,0.5-0.9,1.1-0.7,1.9c0,0.4,0.1,0.8,0.1,1.2c0,0.4,0,0.8,0,1.2c0,0.5,0,1,0,1.6
			c0,0.6,0,1.2,0.1,1.9c0,0.6,0.1,1.3,0.1,1.9c0,0.6,0.1,1.1,0.1,1.6c0,0.7,0.1,1.4,0.1,2c0,0.6,0.1,1.3,0.1,2h0V59
			c0,0.4,0,0.7,0.2,0.9c0.2,0.2,0.4,0.3,0.8,0.3c0.4,0,0.8,0,1.1,0c0.4,0,0.7,0,1.1-0.1c0.1,0,0.2-0.1,0.3-0.2
			c0.1-0.1,0.1-0.2,0.1-0.4c-0.1-0.3-0.1-0.6,0.1-0.9c0.1-0.3,0.2-0.6,0.2-0.9c0-0.1,0.1-0.2,0.2-0.3c0,0,0.1,0,0.2-0.1
			c0.1,0,0.1,0,0.2,0c0.1,0,0.1,0,0.2,0.1c0.1,0,0.1,0.1,0.1,0.1c0.1,0.4,0.1,0.8,0.2,1.2c0,0.4,0,0.8,0,1.3
			c-0.1,0.3-0.3,0.5-0.6,0.5c-0.1,0-0.3,0-0.4,0.1c-0.1,0-0.3,0-0.4,0c-0.7,0-1.4,0-2,0c-0.7,0-1.3,0-2-0.1c-0.3,0-0.6,0-0.8,0
			c-0.3,0-0.6,0.1-0.8,0.2c0,0-0.1,0-0.2,0s-0.2,0-0.2,0c-0.5-0.1-0.6-0.3-0.2-0.6c0.1-0.2,0.2-0.3,0.3-0.5c0-0.2,0-0.4,0-0.6
			c0-1.1,0-2.1,0-3.1c0-1-0.1-2.1-0.2-3.1c-0.1-0.6-0.1-1.3-0.2-2c0-0.8-0.1-1.5-0.1-2.3s-0.1-1.6-0.1-2.3c0-0.8,0-1.4,0-2
			c0-0.4,0-0.7-0.1-1.1c0-0.4-0.1-0.7-0.1-1.1c0-0.3-0.1-0.6-0.2-0.8c-0.1-0.2-0.3-0.4-0.6-0.6c-0.2,0-0.3-0.1-0.2-0.3
			c0,0,0.1-0.1,0.2-0.1c0,0,0.1,0,0.1,0c0.6-0.1,1.1-0.2,1.7-0.3c0.6-0.1,1.1-0.2,1.7-0.3c0.1,0,0.3,0,0.5,0c0.2,0,0.3,0,0.4,0
			c0.1,0,0.2,0,0.2,0.1c0,0,0,0.1,0,0.3c0,0-0.1,0.1-0.1,0.1C51.4,40.2,51.3,40.3,51.3,40.3z"/>
		<path class="st1" d="M61.3,40.3c-0.6,0.5-0.9,1.1-0.7,1.9c0,0.4,0.1,0.8,0.1,1.2c0,0.4,0,0.8,0,1.2c0,0.5,0,1,0,1.6
			c0,0.6,0,1.2,0.1,1.9c0,0.6,0.1,1.3,0.1,1.9c0,0.6,0.1,1.1,0.1,1.6c0,0.7,0.1,1.4,0.1,2c0,0.6,0.1,1.3,0.1,2h0V59
			c0,0.4,0,0.7,0.2,0.9c0.2,0.2,0.4,0.3,0.8,0.3c0.4,0,0.8,0,1.1,0c0.4,0,0.7,0,1.1-0.1c0.1,0,0.2-0.1,0.3-0.2
			c0.1-0.1,0.1-0.2,0.1-0.4c-0.1-0.3-0.1-0.6,0.1-0.9c0.1-0.3,0.2-0.6,0.2-0.9c0-0.1,0.1-0.2,0.2-0.3c0,0,0.1,0,0.2-0.1
			c0.1,0,0.1,0,0.2,0c0.1,0,0.1,0,0.2,0.1c0.1,0,0.1,0.1,0.1,0.1c0.1,0.4,0.1,0.8,0.2,1.2c0,0.4,0,0.8,0,1.3
			c-0.1,0.3-0.3,0.5-0.6,0.5c-0.1,0-0.3,0-0.4,0.1c-0.1,0-0.3,0-0.4,0c-0.7,0-1.4,0-2,0c-0.7,0-1.3,0-2-0.1c-0.3,0-0.6,0-0.8,0
			c-0.3,0-0.6,0.1-0.8,0.2c0,0-0.1,0-0.2,0s-0.2,0-0.2,0c-0.5-0.1-0.6-0.3-0.2-0.6c0.1-0.2,0.2-0.3,0.3-0.5c0-0.2,0-0.4,0-0.6
			c0-1.1,0-2.1,0-3.1c0-1-0.1-2.1-0.2-3.1c-0.1-0.6-0.1-1.3-0.2-2c0-0.8-0.1-1.5-0.1-2.3s-0.1-1.6-0.1-2.3s0-1.4,0-2
			c0-0.4,0-0.7-0.1-1.1c0-0.4-0.1-0.7-0.1-1.1c0-0.3-0.1-0.6-0.2-0.8c-0.1-0.2-0.3-0.4-0.6-0.6c-0.2,0-0.3-0.1-0.2-0.3
			c0,0,0.1-0.1,0.2-0.1c0,0,0.1,0,0.1,0c0.6-0.1,1.1-0.2,1.7-0.3c0.6-0.1,1.1-0.2,1.7-0.3c0.1,0,0.3,0,0.5,0c0.2,0,0.3,0,0.4,0
			c0.1,0,0.2,0,0.2,0.1c0,0,0,0.1,0,0.3c0,0-0.1,0.1-0.1,0.1C61.4,40.2,61.4,40.3,61.3,40.3z"/>
	</g>
	<path class="st1" d="M93.9,52.7c0-1.3-0.2-2.5-0.6-3.7c-0.1-0.6-0.2-1.3-0.3-1.9c-0.1-0.6-0.3-1.2-0.5-1.8
		c-0.3-0.6-0.6-1.1-1.1-1.7c-0.2-0.2-0.4-0.4-0.6-0.5c-0.2-0.2-0.5-0.3-0.7-0.5c-0.7-0.5-1.6-0.8-2.6-1.1c-1-0.2-1.9-0.5-2.9-0.8
		c0,0-0.2,0-0.4,0c-0.6,0-1.1,0-1.7,0c-0.6,0-1.1,0-1.7,0c-1.3,0.1-2.4,0.3-3.4,0.7c-1.3,0.5-2.4,1.2-3.2,1.9
		c-0.8,0.7-1.5,1.6-2,2.4c0,0,0,0,0,0.1c-1.4,1.9-2.2,4.3-2.2,6.9c0,1.2,0.2,2.3,0.5,3.3c0,0.1,0,0.2,0,0.4c0,0.6,0,1.1,0.1,1.7
		c0.1,0.6,0.2,1.1,0.3,1.7c0.1,0.6,0.3,1,0.7,1.4c0.4,0.4,0.9,0.7,1.5,1.1c0.6,0.3,1.1,0.6,1.7,0.9c0.6,0.3,1.2,0.5,1.9,0.8
		c0.9,0.2,1.7,0.4,2.6,0.5c0.5,0.1,1,0.1,1.5,0.1c0.3,0,0.7,0.1,1,0.1c0.8,0,1.7-0.1,2.5-0.3c0,0,0.1,0,0.1,0c0.7-0.1,1.4-0.2,2-0.3
		c0.6-0.2,1.2-0.4,1.6-0.8c0.5-0.4,1-0.9,1.6-1.3c0.5-0.4,1-0.9,1.5-1.3c0.2-0.2,0.4-0.4,0.4-0.6c0.1-0.2,0.2-0.5,0.3-0.7
		C93.1,57.4,93.9,55.1,93.9,52.7z"/>
	<g>
		<path class="st0" d="M77.1,47.2l-0.4,3.1c0.3-0.3,0.6-0.5,1-0.6c0.2-0.1,0.5-0.1,0.7,0c0.9,0.1,1.6,0.6,2,1.3
			c0.3,0.6,0.4,1.5,0.3,2.5l-0.4,3.1c-0.1,1.1-0.6,1.9-1.4,2.5c-0.7,0.6-1.6,0.8-2.5,0.7c-0.9-0.1-1.7-0.6-2.2-1.4
			c-0.5-0.7-0.7-1.6-0.6-2.6l0-0.4l2.1,0.1l0,0.5c0,0.6,0.2,1,0.5,1.3c0.1,0.1,0.2,0.1,0.4,0.1c0.9,0.1,1.4-0.3,1.5-1.2l0.5-3.6
			c0.1-0.4,0-0.8-0.3-1.1c-0.1-0.2-0.3-0.2-0.6-0.3c-0.4-0.1-0.7,0.1-0.9,0.3c-0.2,0.2-0.3,0.5-0.3,0.8L76.3,53l-2.1-0.3l1.1-8
			l6.3,0.8l-0.3,2.2L77.1,47.2z"/>
		<path class="st0" d="M84.3,56.1l-0.6,4.6l-2.1-0.3l1.9-14.6l2.1,0.3l-0.7,5.2l3.3-4.9l2.3,0.3l-3.7,5.6l2.3,9.1l-2.5-0.3l-1.5-6.2
			L84.3,56.1z"/>
	</g>
	<g>
		<g>
			<g>
				<path class="st0" d="M46.9,65.8L46.3,66c-0.1,0-0.1,0-0.1-0.1l0.1-0.5c0-0.1,0.1-0.1,0.2-0.2l1.2-0.3c0.1,0,0.3-0.1,0.3-0.1
					c0.1,0,0.2,0.1,0.1,0.2l-0.9,4.1c-0.1,0.3,0,0.3,0.5,0.3H48c0.1,0,0.1,0,0.1,0.1L48,70c0,0.1-0.1,0.2-0.2,0.2h-2.4
					c-0.1,0-0.1,0-0.1-0.2l0.1-0.4c0-0.1,0.1-0.1,0.2-0.1h0.1c0.6,0,0.6-0.1,0.7-0.3l0.7-3.2C47,65.8,47,65.8,46.9,65.8z"/>
				<path class="st0" d="M51.2,64.8c1.3,0,1.7,0.6,1.5,1.4c-0.1,0.6-0.6,1.1-1.3,1.7l-1.7,1.4h1c0.6,0,0.7,0,0.8-0.4l0.1-0.3
					c0.1-0.1,0.1-0.1,0.2-0.1h0.5c0.1,0,0.1,0,0.1,0.2L52,69.8c-0.1,0.3-0.2,0.3-0.3,0.3h-3.2c-0.1,0-0.1,0-0.1-0.2l0-0.3
					c0-0.2,0.2-0.3,0.4-0.5l2.2-1.8c0.4-0.3,0.7-0.7,0.8-1.1s-0.1-0.8-0.7-0.8c-0.2,0-0.5,0-0.7,0.1c0.1,0.1,0.1,0.2,0.1,0.4
					c-0.1,0.4-0.4,0.6-0.8,0.6c-0.3,0-0.5-0.2-0.4-0.6C49.4,65.2,50.1,64.8,51.2,64.8z"/>
				<path class="st0" d="M53.5,69c0.3,0,0.5,0.2,0.4,0.6c-0.1,0.4-0.4,0.6-0.8,0.6c-0.3,0-0.5-0.2-0.4-0.6
					C52.9,69.3,53.2,69,53.5,69z"/>
				<path class="st0" d="M56,65.8L55.5,66c-0.1,0-0.1,0-0.1-0.1l0.1-0.5c0-0.1,0.1-0.1,0.2-0.2l1.2-0.3c0.1,0,0.3-0.1,0.3-0.1
					c0.1,0,0.2,0.1,0.1,0.2l-0.9,4.1c-0.1,0.3,0,0.3,0.5,0.3h0.1c0.1,0,0.1,0,0.1,0.1L57.1,70c0,0.1-0.1,0.2-0.2,0.2h-2.4
					c-0.1,0-0.1,0-0.1-0.2l0.1-0.4c0-0.1,0.1-0.1,0.2-0.1h0.1c0.6,0,0.6-0.1,0.7-0.3l0.7-3.2C56.2,65.8,56.2,65.8,56,65.8z"/>
				<path class="st0" d="M59.1,65.8L58.5,66c-0.1,0-0.1,0-0.1-0.1l0.1-0.5c0-0.1,0.1-0.1,0.2-0.2l1.2-0.3c0.1,0,0.3-0.1,0.3-0.1
					c0.1,0,0.2,0.1,0.1,0.2l-0.9,4.1c-0.1,0.3,0,0.3,0.5,0.3h0.1c0.1,0,0.1,0,0.1,0.1L60.2,70c0,0.1-0.1,0.2-0.2,0.2h-2.4
					c-0.1,0-0.1,0-0.1-0.2l0.1-0.4c0-0.1,0.1-0.1,0.2-0.1h0.1c0.6,0,0.6-0.1,0.7-0.3l0.7-3.2C59.2,65.8,59.2,65.8,59.1,65.8z"/>
				<path class="st0" d="M61.4,69c0.3,0,0.5,0.2,0.4,0.6c-0.1,0.4-0.4,0.6-0.8,0.6c-0.3,0-0.5-0.2-0.4-0.6
					C60.7,69.3,61.1,69,61.4,69z"/>
				<path class="st0" d="M63.9,65.8L63.3,66c-0.1,0-0.1,0-0.1-0.1l0.1-0.5c0-0.1,0.1-0.1,0.2-0.2l1.2-0.3c0.1,0,0.3-0.1,0.3-0.1
					c0.1,0,0.2,0.1,0.1,0.2l-0.9,4.1c-0.1,0.3,0,0.3,0.5,0.3h0.1c0.1,0,0.1,0,0.1,0.1L65,70c0,0.1-0.1,0.2-0.2,0.2h-2.4
					c-0.1,0-0.1,0-0.1-0.2l0.1-0.4c0-0.1,0.1-0.1,0.2-0.1h0.1c0.6,0,0.6-0.1,0.7-0.3l0.7-3.2C64,65.8,64,65.8,63.9,65.8z"/>
				<path class="st0" d="M65.8,67.7c0.4-2,1.5-2.9,3.1-2.9c0.4,0,0.9,0.1,0.9,0.1c0.1,0,0.1,0,0.1,0.1l-0.1,0.5
					c0,0.1-0.1,0.1-0.2,0.1c-0.3-0.1-0.5-0.1-0.7-0.1c-1.1,0-1.7,0.6-2,2c0.3-0.7,0.9-0.9,1.4-0.9c1,0,1.6,0.6,1.4,1.7
					c-0.3,1.2-1.1,1.8-2.2,1.8C65.7,70.2,65.5,69.3,65.8,67.7z M68.6,68.5c0.1-0.6-0.1-1-0.7-1s-1,0.4-1.1,1c-0.1,0.6,0.1,1,0.7,1
					C67.9,69.5,68.4,69.2,68.6,68.5z"/>
			</g>
		</g>
		<path class="st0" d="M38.5,68.3c-1,0.1-2,0.2-3,0.7c-2.3,1.2-3.9,3.9-1.7,5.2c1.2,0.7,2.4,0.5,3.6-0.2c0.8-0.4,1-1.6,0.4-2.4
			c-0.4-0.5-1.6-0.8-1.7-0.3c0,0.1,0.1,0.2,0.1,0.3c0.1,0.1,0.2,0.1,0.3,0.2c0.6,0.4,0.5,1.3-0.1,1.6c-1,0.6-1.5,0.7-2.7,0.1
			c-0.2-0.1-0.6-0.8-0.4-1.4c0.5-2.2,2.3-2.2,5.9-3c1-0.2,2-0.2,2.9-0.6c2.3-0.8,2.7-1.3,2.7-2.1c-0.2,0.1-0.3,0.1-0.4,0.2
			c-0.2,0.1-0.3,0.3-0.4,0.4C41.9,68.5,41,68,38.5,68.3z M34.7,67.6c0.4,0,0.8-0.1,1.2-0.1c2.5,0,5.3,0.3,5.9-0.3
			c0.1-0.1,0-0.2,0-0.3c-0.2,0-0.3,0-0.3,0c-0.3,0.1-0.6,0.1-0.8,0.2c-0.5,0-1-0.1-1.5,0c-1,0.1-1.9-0.1-2.9-0.2
			c-0.6-0.1-1.2-0.2-1.9-0.2c-0.3,0-0.4,0.1-0.4,0.3C34,67.3,34.3,67.6,34.7,67.6z M31.4,69.8c0.1,0,0.2,0,0.4,0
			c0.8,0,1.5-0.5,2.2-0.7c0.1,0,0.1-0.1,0.2-0.1c0.2-0.3-0.1-0.5-0.4-0.4c-0.6,0.2-1.3,0.3-1.9,0.5c-0.1,0-0.2,0.1-0.3,0.1
			C31.3,69.3,31.3,69.6,31.4,69.8z"/>
	</g>
</g>
</svg>
