<?xml version="1.0" encoding="utf-8"?>
<!-- Generator: Adobe Illustrator 21.0.0, SVG Export Plug-In . SVG Version: 6.00 Build 0)  -->
<svg version="1.1" id="Layer_1" xmlns="http://www.w3.org/2000/svg" xmlns:xlink="http://www.w3.org/1999/xlink" x="0px" y="0px"
	 viewBox="0 0 230.3 76.9" style="enable-background:new 0 0 230.3 76.9;" xml:space="preserve">
<style type="text/css">
	.st0{fill:#FFFFFF;}
	.st1{fill:#E2231A;}
</style>
<g>
	<g>
		<path class="st0" d="M108.1,16C108.1,16,108.1,16,108.1,16C108.1,16,108.1,16,108.1,16L108.1,16c-0.6-0.6-1.3-0.9-1.9-1.2
			c0.7-0.6,1.1-1.4,1.1-2.2c0-0.9-0.4-1.7-1.1-2.3h0c-0.7-0.6-1.6-0.9-2.6-0.9h-3.2h-0.3v16.5h4.2v0c1.5-0.1,2.8-0.6,3.9-1.6
			c1.3-1.1,1.9-2.5,1.9-4.1C110,18.5,109.4,17.1,108.1,16L108.1,16z M105.1,11.5c0.4,0.3,0.6,0.7,0.6,1.2c0,0.5-0.2,0.9-0.6,1.2
			c-0.3,0.3-0.7,0.4-1.2,0.5h-2.1V11h1.8C104.2,11,104.7,11.1,105.1,11.5z M106.9,23.1L106.9,23.1c-0.8,0.8-1.8,1.2-3,1.3h0h-2.1V16
			h1.7c1.3,0,2.4,0.4,3.4,1.2c0.9,0.8,1.4,1.8,1.4,2.9C108.2,21.2,107.8,22.2,106.9,23.1L106.9,23.1z"/>
		<polygon class="st0" points="112,9.4 112,25.9 121.6,25.9 121.6,25.5 121.6,24.3 113.7,24.3 113.7,18.4 121.6,18.4 121.6,18.1 
			121.6,16.9 113.7,16.9 113.7,11 121.6,11 121.6,10.6 121.6,9.4 112.3,9.4 		"/>
		<polygon class="st0" points="134.3,9.4 134.3,22.6 125.7,9.4 125.5,9.4 124,9.4 124,25.5 124,25.9 124.4,25.9 125.7,25.9 
			125.7,12.5 134.5,25.9 134.7,25.9 136,25.9 136,9.4 135.7,9.4 		"/>
		<polygon class="st0" points="138.7,9.4 138.7,25.9 148.4,25.9 148.4,25.5 148.4,24.3 140.4,24.3 140.4,18.4 148.4,18.4 
			148.4,18.1 148.4,16.9 140.4,16.9 140.4,11 148.4,11 148.4,10.6 148.4,9.4 139.1,9.4 		"/>
		<polygon class="st0" points="150.7,9.4 150.7,25.9 151.1,25.9 152.4,25.9 152.4,18.4 159.3,18.4 159.3,18.1 159.3,16.9 
			152.4,16.9 152.4,11 159.3,11 159.3,10.6 159.3,9.4 151.1,9.4 		"/>
		<polygon class="st0" points="161.9,9.4 161.9,25.5 161.9,25.9 162.2,25.9 163.6,25.9 163.6,9.4 163.2,9.4 		"/>
		<polygon class="st0" points="165.4,9.7 165.4,11 169.9,11 169.9,25.9 170.2,25.9 171.6,25.9 171.6,11 175.8,11 176.1,11 
			176.1,10.6 176.1,9.4 165.4,9.4 		"/>
		<polygon class="st0" points="176.6,9.7 176.6,11 181.1,11 181.1,25.9 181.4,25.9 182.8,25.9 182.8,11 187,11 187.3,11 187.3,10.6 
			187.3,9.4 176.6,9.4 		"/>
		<polygon class="st0" points="189.1,9.4 189.1,25.5 189.1,25.9 189.4,25.9 190.8,25.9 190.8,9.4 190.4,9.4 		"/>
		<polygon class="st0" points="204,9.4 204,22.6 195.3,9.4 195.1,9.4 193.7,9.4 193.7,25.5 193.7,25.9 194,25.9 195.4,25.9 
			195.4,12.5 204.1,25.9 204.3,25.9 205.7,25.9 205.7,9.4 205.3,9.4 		"/>
		<path class="st0" d="M222.3,18.1v5c-1.4,0.9-2.9,1.4-4.7,1.4c-2.2,0-4-0.7-5.5-2c-1.5-1.4-2.3-2.9-2.3-4.8c0-1.9,0.7-3.5,2.3-4.8
			c1.5-1.3,3.4-2,5.5-2c2,0,3.7,0.6,5.2,1.7l0.2,0.2l0.2-0.2l1.1-0.9l-0.3-0.3c-1.8-1.5-3.9-2.2-6.4-2.2c-2.6,0-4.9,0.8-6.7,2.5
			c-1.8,1.6-2.8,3.7-2.8,6c0,2.3,0.9,4.4,2.8,6c1.8,1.6,4.1,2.5,6.7,2.5c2.4,0,4.6-0.7,6.3-2.2l0.1-0.1v-5.3v-0.3h-0.3H222.3z"/>
	</g>
	<g>
		<path class="st1" d="M67.6,64.7c0.1,0.2-0.2-4.1,0.1-4c-0.2-1-0.9-3-1-3.3c-0.3-0.7-0.8-1.4-1.4-2.3c-0.2-0.6-0.4-1.2-0.5-1.4
			c-0.2-0.5-0.7-1.5-0.5-1.5c-0.1-1,0.4,0.2,0.5-0.4c-0.4-1.2-0.8-2.4-1.2-3.7c0.3,0,0.3,0.4,0.4,0c-0.6-1.2-1.4-2.3-2.2-3.4
			c0-0.1-0.1-0.2-0.1-0.3c0.2,0,0.3,0.4,0.4,0c-0.4-0.7-0.8-1.3-1.2-1.9c4.6-4,11.6-8.3,15.9-13.2c-0.2,0.1-0.4,0-0.3-0.2
			c2.4-2.2,4.1-3.8,6.4-6.3c-0.5-0.3-1.1,0.2-1.3-0.3c1.1-0.5,1.3-2.2,1.2-2.8c0.5-0.5,0.2-0.1-0.4-0.7c0.7-0.2-0.3-1.2-0.8-1.2
			c0.1-0.3-0.2-0.7-0.6-0.5c0.3-0.5,0-1.4-0.5-1.9c0.7-0.2-2.6-1.4-2.8-1.4c0.6-0.8-1.2-2.1-1.5-2.3c0,0,0.1-0.1,0.1-0.1
			c0.5-0.2,0.6-0.8,0.5-0.7c-0.4-0.4-0.7-0.2-0.6-0.3c0.5-0.3-0.1-0.4-0.3-0.2c-0.2,0-0.3,0-0.4-0.2c0.7-0.2-1.5-1.7-1.6-1.6
			C74,8.3,74.1,8,73.7,7.9c0.1-0.1,0-0.1-0.5-0.1c0.4-0.2,0.5-0.9-0.1-0.5c-0.3,0.1-0.6,0.1-1,0.1c0.3-0.7-1.3-0.9-2.2-0.7
			c0-0.6,0.9-0.1,0.7-0.8c-1,0.1-1.8,0.6-2.5,1.1C68.4,6.1,67,7.8,66.9,7c-0.3-0.7-0.4-0.2-1.1,0c1-1,0.7-1.7,0.5-1.8
			c-0.1,0.1-0.1,0,0,0c0.3-0.3-0.2-0.9,0-1.2c0.8-1.3-1.2,0.8-3.7,1.2c0-0.2-5.4,2.5-6.3,3.2c-0.2,0.1-0.1,0.7-0.3,0.9
			c-0.3,0.3-1,0.2-1.4,0.5c-0.7,0.6-0.9,1.4-1.5,1.9c0.1-0.1,0.2-0.4,0.3-0.4c-1.2,0-2.4,1.6-3.8,2.3c-1.7,0.9-3.4,1.8-4.9,2.4
			c-0.7-1.1-1.3-2.2-2-3.4c-0.4-0.9-0.8-1.8-1.1-2.8c-0.2,0-0.3,0-0.4-0.1c-0.5-1.1-2.7-4.3-3.4-3.8c-0.2-0.5-0.7-0.4-1.1-0.5
			c-0.7-1.4-3.2-5.2-3.9-4.7c-0.4-0.9-1.4,0-1.9-0.8c-0.2,1,0.1,1.2-1.2,1c-0.1,1-1.1,1.2-1.4,1.2c0,0.5-0.2,0.9-0.5,1.3
			c-0.1-0.1-0.2-0.1-0.3-0.2c0,0.2,0,0.3,0.1,0.4c-0.2,0.2-0.4,0.5-0.7,0.7c-0.2,0-0.4-0.1-0.6-0.4c-0.2,1,0.1,1.2-1.2,1
			c-0.1,1-1.1,1.2-1.4,1.2c0,0.4-0.2,0.8-0.4,1.2c0-0.1-0.1-0.3-0.3-0.3c-0.2,0.2-0.2,0.5-0.1,0.7c-0.4,0.5-1,0.9-1.5,1.4
			c-0.1-0.1-0.2-0.1-0.4-0.1c0,0.1,0,0.2,0.1,0.3c-1.1,0.8-2.1,1.7-2.2,2.9c-0.4-0.2-0.3,0.1-0.1,0.7c-0.7-0.6-1.9,1.5-1.7,2.2
			c-0.1,0.1-0.1,0.3-0.1,0.4c-0.6-0.4,0.3,0.6-0.3,0.7c0-0.5-1.2,0.6-1.1,0.8c-0.1-0.1,0.5,1.4,0.5,2.4c-0.9-0.7-0.6-0.4-1.1-0.5
			c-0.3,0.4-0.3,1.1-0.8,1.3c0.8,3.4,2.3,6.2,3.9,9c0.5,1.1,1.1,2.2,1.6,3.3c-2,1.2-4.2,2.3-6,3.7c-2.3,1.7-3.8,2.2-2.7,2.2
			c-2.2,0.8-5.1,3.4-5.1,3.4c-1.6,0.6-1.3,1-0.1,0.8c-0.2,0.1-0.4,0.2-0.6,0.4c0,0,0.1,0,0.1,0c-1.7,0.8-3,1.9-4.2,2.9
			c0.2,0.3,0.4,0.7,0.5,1.1c-0.5,0.2,0.5,0.9,0.7,1C1.5,48.8,0.7,49.4,0,50c0.6,0.8,0.6,2.4,1.8,2.2c-0.2,0.5-1.1,0.3-1.2,1
			c1.1,0.3,1.3,0,1.7,0.8c-0.7-0.2-0.9,0.2-1.2,0.6c0.6,0.9,0.6,2,0.4,3.1c0.3,0.5,1.7,1.3,2,1.1c0,0.1,0,0.4,0.1,0.5
			c-0.3,0.2-0.5,0.5-1.2,0.2c0,0.4-0.1,0.7-0.1,1.1c0.5,0.2,1.4,0.9,1.5,1.1c0,0.1,0,0.3-0.1,0.4c0.1,0.2,0.3,0.3,0.5,0.4
			c0,0.1,0.3,0.3,0.5,0.3c0.2,0.1,0.3,0.2,0.5,0.3c-0.4,0,0.3,0.2,0.7,0c0.2,0.1,0.3,0.1,0.5,0.2c0,0.1,0.1,0.2,0.1,0.4
			c-0.2-0.1-0.4-0.1-0.5,0c-0.4-0.1-0.8-0.1-1.1,0.3c0.1,0,1.1,0.9,1.7,0.8c0.1,0,0.2,0,0.2,0c0.2,0.1,0.3,0.2,0.4,0.5
			c-0.4,0.2-0.6,0.6-1.4,0.3c0,0.8,1.7,2.8,1.7,3c0,0.3-0.4,0.2-0.5,0.4c5.7,0.9,10.3-0.9,14.5-3.5c4.7-0.3,8.6-2.4,12.3-4.9
			c0.1,0.1,0.2,0.1,0.3,0.1c-0.1,0-0.1-0.1-0.2-0.2c0.1,0,0.2-0.1,0.2-0.2c0.5,0.4,1,0.9,1.2,1.8c-0.2,0-0.3,0-0.5,0c0,0,0,0,0,0
			c-0.2,0-0.3,0.1-0.4,0.1c0.2,0.6,0.6,1.4,1,2.1c0.1,0.2,0.3,0.5,0.3,0.4c0.2,0.2,0.3,0.3,0.5,0.3c0.3,0.4,1.2,1.5,0.9,1.4
			c0.1,1.5,1.7,3.2,1.7,2.8c2.7,0.6,3,4.3,4.9,4.9c-0.6-0.5,1.8-0.5,2.2,0.7c1.4,0,1.4,2.4,1.7,1.3c1.7,0.9,1.8,0.5,1.7,0.2
			c0.2,0,0.3,0,0.3-0.2c-0.2,0-0.2-0.4,0-0.4c0.1,0.3,0.4,1.4,0.8,0.7c-0.2-0.4,0.9-0.9,1-1.5c0.2,0.2,0.4,0,0.6-0.1
			c0.6,1,1.1-0.5,1.4-0.6c0.6,0.5,0.8,0.6,0.5-0.2c0.6,0.2,1,1.6,1.4,1.2c0-0.2,0.5-0.7-0.1-1.3c-0.1-0.3-0.2-0.7-0.2-1
			c1.6,1,1.4,0.5,0.9-0.3c0.1,0.1,0.8,0.6,0.9,0.1c-0.2,0-0.2-0.4,0-0.4c0.1,0.3,0.3,0.2,0.3-0.2c0,0,0-0.1,0-0.1c0,0,0,0,0-0.1
			c0.1,0,0.2,0.1,0.3,0.1c0.6,1.1,2.2,0.8,2,0.4c0.2,0.1,0.4,0.2,0.5-0.2c-0.2,0-0.2-0.4,0-0.4c0.1,0.3,0.2,0.1,0.3-0.4c0,0,0,0,0,0
			c0.1,0.1,0.1,0.2,0.2,0.3c0-0.1,0-0.2,0-0.3c0.3,0.1,0.3,0.1,0.7,0c0,0,0,0.1,0.1,0.1c-0.1,0.3,0.4,0.1,0.5-0.4
			c0.3,0.4,0.6,0.9,0.9,0.7c0.1-0.3,2-0.9,1.7-1.7c0.6,0.2,1,1.6,1.4,1.2c0.2-1.1,0.2-3.9,0.1-4.3c0,0,0.6-0.1,0.4-1
			c0.3,0-0.2-1.4,0.8-1.7"/>
		<path class="st0" d="M73,66.4h8.2V52.7c0-1.7-0.1-3.8,2.1-5.4c1.5-1,3.3-1.3,5.1-1.3c2.3,0,4.3,0.9,5,3.2c0.2,0.9,0.2,1.8,0.2,2.7
			v14.5h8.3V53.2c0-2.9,0.3-5.1,2.5-6.4c1.4-0.8,2.9-1,4.4-1c5.5,0,5.5,3.3,5.6,5.3v15.3h8.2V49.7c0-2.6,0-6-4-8.1
			c-2.1-1.1-4.6-1.3-6.3-1.3c-3.5,0-7.1,0.9-9.7,3.2c-0.7,0.6-1,1.1-1.4,1.6c-0.5-0.9-1.2-2.1-2.8-3.1c-1.5-1-3.9-1.7-7.1-1.7
			c-2.9,0-5.9,0.6-8.3,2.3c-1.1,0.9-1.7,1.7-2.3,2.5v-3.9H73V66.4z"/>
		<path class="st0" d="M148.4,54.7c-0.1,1.1,0,1.9-0.8,3.1c-1.5,2.4-5,3.8-8.4,3.8c-1.1,0-5.5,0-5.5-3.2c0-2.5,2.5-3,3.1-3.1
			C139.1,54.7,143,54.7,148.4,54.7 M156.7,51.4c0-5.3,0-11.2-15.1-11.2c-2.4,0-8.1,0-11.6,2.2c-2.9,1.9-3.4,4.3-3.7,5.8h8.3
			c0.7-2,3.9-2.3,6.7-2.3c7.2,0,7.1,2.4,7.1,4.5h-7.8c-7.9,0.1-15.6,0.2-15.6,8.2c0,4.1,2.7,6.7,6.2,7.7c1.9,0.5,3.9,0.7,5.9,0.7
			c5.6,0,8.6-1.7,11.3-3.3c0.1,0.7,0.1,1.5,0.5,2.7h8.9c-0.9-1.2-1.1-1.8-1.2-3.1V51.4z"/>
		<path class="st0" d="M174,46.2c1.9-0.1,4.1,0.4,5.6,1.4c0.8,0.5,2.8,1.9,2.8,6c0,6.2-4.3,8-7.8,8c-6.2,0-7.5-5-7.5-8
			C167.1,49.7,169.6,46.4,174,46.2 M182.3,43.8c-1-0.8-2.1-1.7-4.2-2.4c-1.8-0.7-3.7-1.1-5.8-1.1c-7.9,0-13.7,5.6-13.7,13.6
			c0,8.1,5.8,13.4,13.7,13.4c3.6,0,6.6-1.3,8.4-2.5c0.6-0.4,1.1-1,1.6-1.4v3h8.1V31.1h-8.1V43.8z"/>
		<path class="st0" d="M207.8,46.2c1.9-0.1,4.1,0.4,5.6,1.4c0.7,0.5,2.8,1.9,2.8,6c0,6.2-4.3,8-7.8,8c-6.2,0-7.5-5-7.5-8
			C200.8,49.7,203.3,46.4,207.8,46.2 M216.1,43.8c-1-0.8-2.1-1.7-4.2-2.4c-1.8-0.7-3.7-1.1-5.8-1.1c-7.9,0-13.7,5.6-13.7,13.6
			c0,8.1,5.8,13.4,13.7,13.4c3.6,0,6.6-1.3,8.4-2.5c0.6-0.4,1.1-1,1.6-1.4v3h8.1V31.1h-8.1V43.8z"/>
		<path class="st0" d="M58.9,30.1c-0.1-0.2-0.7-1.2-0.9-1.2c0,0-10.2,4.1-18.4,7.4c0.1-2.2,0.3-3.9,0.6-4.8c0,0,13.3-17.1,13.1-17.9
			c0,0,0-0.6-0.6-0.7c-0.5-0.1-11.4-0.1-13.8-0.1h-0.8h-1.8c0,0-13.4,0-13.9,0.1c-0.6,0.2-0.6,0.7-0.6,0.7
			C21.7,14.3,35,31.5,35,31.5c0.3,1.1,0.6,3.5,0.7,6.4c-3.6,1.4-6.2,2.5-6.2,2.5s-0.7,0.2-1.5-0.1c0,0-3.2-1.1-3.7-1.3
			c-0.6-0.2-1-0.2-1.6,0.1l-8.5,3.4c-0.7,0.3-1.1,1.1-1.1,1.9c0,0.2,0.1,0.3,0.1,0.5c0,0,3.4,8.5,3.4,8.5c0.3,0.7,1.1,1.1,1.9,1.1
			c0.2,0,0.3-0.1,0.5-0.1l8.7-3.5c0.8-0.4,1-0.7,1.3-1.3l1.4-3.2c0.2-0.7,1-1,1-1c1.5-0.6,2.9-1.2,4.4-1.9c0.1,4.3,0.1,8.7,0.1,11.1
			c0,5.4-2.1,5.2-5,5.6c-2.9,0.4-5.3,1.6-5.3,2.2c0,0.5,5.4,1.1,12.2,1.1s11.8-0.6,11.8-1.1c0-0.5-2.4-1.8-5.3-2.2
			c-2.9-0.4-5-0.2-5-5.6c0-2.8,0-7.9,0.1-12.6c1.9-0.8,4.2-1.7,5.6-2.4c0.7-0.3,1.4-0.6,2.2-0.9c0.3-0.1,0.6-0.2,0.8-0.4
			c0.6-0.4,0.8-1.1,1.2-1.6c0.5-0.5,1-1,1.6-1.3c0.8-0.4,1.7-0.7,2.6-0.7c0.7,0,1.4,0.4,2.2,0.3c0.3,0,1.7-0.4,1.8-0.6
			c0.3-0.6,0.6-1.2,0.9-1.8C58.8,31.6,59.3,31.1,58.9,30.1z M38.1,22.8c1.3-1.6,3.1-2,4.1-0.9c1,1,0.7,3.2-0.6,4.7
			c-1.3,1.6-3.1,2-4.1,0.9C36.5,26.5,36.8,24.4,38.1,22.8z M20.8,51c-0.2,0.1-0.3,0.1-0.5,0.1c-0.5,0-1.1-0.3-1.3-0.9l-2-5
			c-0.3-0.7,0.1-1.5,0.8-1.8c0.7-0.3,1.5,0.1,1.8,0.8l2,5C21.9,49.9,21.5,50.7,20.8,51z"/>
		<g>
			<path class="st0" d="M230.3,33.6c0,1.2-1,2.1-2.2,2.1c-1.2,0-2.2-0.9-2.2-2.1c0-1.2,1-2.1,2.2-2.1
				C229.3,31.5,230.3,32.4,230.3,33.6z M226.5,33.6c0,0.9,0.7,1.7,1.6,1.7c0.9,0,1.6-0.7,1.6-1.7c0-0.9-0.7-1.7-1.6-1.7
				C227.2,31.9,226.5,32.6,226.5,33.6z M227.8,34.7h-0.5v-2.1c0.2,0,0.5-0.1,0.8-0.1c0.4,0,0.6,0.1,0.7,0.2c0.1,0.1,0.2,0.2,0.2,0.4
				c0,0.3-0.2,0.4-0.4,0.5v0c0.2,0.1,0.3,0.2,0.4,0.5c0.1,0.3,0.1,0.4,0.2,0.5h-0.5c-0.1-0.1-0.1-0.3-0.2-0.5c0-0.2-0.2-0.3-0.4-0.3
				h-0.2V34.7z M227.8,33.5h0.2c0.3,0,0.5-0.1,0.5-0.3c0-0.2-0.1-0.3-0.4-0.3c-0.1,0-0.2,0-0.3,0V33.5z"/>
		</g>
	</g>
</g>
</svg>
